<svg width="957" height="996" viewBox="0 0 957 996" fill="none" xmlns="http://www.w3.org/2000/svg">
<path fill-rule="evenodd" clip-rule="evenodd" d="M956.505 20C956.505 8.9543 947.551 0 936.505 0C925.46 0 916.505 8.9543 916.505 20C916.505 21.8113 915.532 27.2309 911.197 37.0802C907.1 46.3878 900.743 58.0157 891.985 71.6003C874.494 98.7311 848.181 132.502 813.491 169.432C744.133 243.266 642.201 328.753 512.543 398.38C474.779 418.66 440.306 435.125 407.535 450.777L407.535 450.778C389.173 459.548 371.346 468.063 353.772 476.851C305.533 500.974 260.999 526.359 219.528 562.359C136.156 634.734 68.3089 747.232 0.86189 970.209C-2.33614 980.782 3.64213 991.945 14.2147 995.143C24.7873 998.341 35.9506 992.363 39.1487 981.791C105.702 761.768 170.699 657.716 245.749 592.565C283.49 559.804 324.56 536.182 371.663 512.627C387.971 504.472 405.238 496.219 423.347 487.564C456.766 471.592 493.052 454.249 531.467 433.62C665.309 361.747 770.628 273.484 842.645 196.818C878.642 158.498 906.548 122.831 925.604 93.2747C935.119 78.5155 942.617 64.9872 947.808 53.1933C952.76 41.9409 956.505 30.3137 956.505 20ZM954.505 20C954.505 10.0589 946.446 2 936.505 2C926.564 2 918.505 10.0589 918.505 20C918.505 22.2364 917.393 27.9664 913.027 37.8858C908.876 47.3178 902.462 59.0407 893.666 72.6841C876.096 99.9361 849.704 133.802 814.948 170.801C745.458 244.777 643.357 330.403 513.489 400.142C475.693 420.439 441.132 436.947 408.327 452.616L408.327 452.616L408.324 452.618C389.975 461.382 372.176 469.884 354.667 478.64C306.485 502.734 262.123 528.031 220.839 563.87C137.883 635.883 70.1786 747.958 2.77623 970.789C-0.102002 980.304 5.27844 990.351 14.7938 993.229C24.3091 996.107 34.3561 990.727 37.2343 981.211C103.832 761.042 168.972 656.567 244.438 591.055C282.365 558.131 323.609 534.421 370.769 510.838C387.139 502.652 404.435 494.385 422.557 485.724C455.945 469.767 492.139 452.47 530.521 431.858C664.154 360.097 769.303 271.973 841.187 195.449C877.119 157.198 904.946 121.626 923.923 92.1909C933.4 77.4905 940.841 64.0573 945.977 52.3876C950.899 41.2054 954.505 29.8886 954.505 20Z" fill="#0A9898"/>
</svg>
