<?xml version="1.0" standalone="no"?><svg xmlns:xlink="http://www.w3.org/1999/xlink" xmlns="http://www.w3.org/2000/svg" viewBox="0 0 1000 625" preserveAspectRatio="xMaxYMax slice"><g transform="scale(0.8802816901408451)"><rect x="0" y="0" width="1136" height="710" fill="#0d3450"/><rect x="0" y="0" width="71" height="71" fill="#0c455c"/><path d="M 0 0 A 71 71 0 0 1 71 71 L 0 71" fill="#0c6171"/><rect x="71" y="0" width="71" height="71" fill="#0d3450"/><rect x="71" y="0" width="35.5" height="35.5" fill="#0d3651"/><path d="M 71 0 A 35.5 35.5 0 0 1 106.5 35.5 L 71 35.5" fill="#0a9495"/><rect x="106.5" y="0" width="35.5" height="35.5" fill="#0d3b55"/><path d="M 106.5 35.5 A 35.5 35.5 0 0 1  142 0 L 106.5 35.5 A 35.5 35.5 0 0 0 142 0" fill="#0d425a"/><rect x="71" y="35.5" width="35.5" height="35.5" fill="#0a8c8f"/><path d="M 71 71 A 35.5 35.5 0 0 1  106.5 35.5 L 106.5 71" fill="#0b6876"/><rect x="106.5" y="35.5" width="35.5" height="35.5" fill="#0d3752"/><path d="M 106.5 35.5 A 35.5 35.5 0 0 1 142 71 L 106.5 71" fill="#0c596a"/><rect x="142" y="0" width="71" height="71" fill="#0d3450"/><rect x="142" y="0" width="35.5" height="35.5" fill="#0a8a8e"/><path d="M 142 35.5 A 35.5 35.5 0 0 1  177.5 0 L 177.5 35.5" fill="#0a9697"/><rect x="177.5" y="0" width="35.5" height="35.5" fill="#0b7982"/><path d="M 177.5 0 A 35.5 35.5 0 0 1  213 35.5 L 177.5 0 A 35.5 35.5 0 0 0 213 35.5" fill="#0c6271"/><rect x="142" y="35.5" width="35.5" height="35.5" fill="#0c475e"/><path d="M 142 71 A 35.5 35.5 0 0 0 177.5 35.5 L 142 35.5" fill="#0c5568"/><rect x="177.5" y="35.5" width="35.5" height="35.5" fill="#0d3c55"/><path d="M 177.5 35.5 A 35.5 35.5 0 0 1 213 71 L 177.5 71" fill="#0b727d"/><rect x="213" y="0" width="71" height="71" fill="#0b717c"/><path d="M 213 71 A 71 71 0 0 0 284 0 L 213 0" fill="#0c6472"/><rect x="284" y="0" width="71" height="71" fill="#0c586a"/><path d="M 284 71 A 71 71 0 0 1  355 0 L 284 71 A 71 71 0 0 0 355 0" fill="#0c4d62"/><rect x="355" y="0" width="71" height="71" fill="#0a9898"/><path d="M 355 0 A 71 71 0 0 0 426 71 L 426 0" fill="#0b8087"/><rect x="426" y="0" width="71" height="71" fill="#0c5366"/><path d="M 426 71 A 71 71 0 0 1  497 0 L 426 71 A 71 71 0 0 0 497 0" fill="#0b7982"/><rect x="497" y="0" width="71" height="71" fill="#0a8d90"/><path d="M 497 71 A 71 71 0 0 0 568 0 L 497 0" fill="#0c4e62"/><rect x="568" y="0" width="71" height="71" fill="#0d3d57"/><path d="M 568 0 A 71 71 0 0 1  639 71 L 568 0 A 71 71 0 0 0 639 71" fill="#0b7d85"/><rect x="639" y="0" width="71" height="71" fill="#0c5a6b"/><path d="M 639 71 A 71 71 0 0 1  710 0 L 639 71 A 71 71 0 0 0 710 0" fill="#0a9294"/><rect x="710" y="0" width="71" height="71" fill="#0d3450"/><rect x="710" y="0" width="35.5" height="35.5" fill="#0b7982"/><path d="M 710 35.5 A 35.5 35.5 0 0 0 745.5 0 L 710 0" fill="#0a8f92"/><rect x="745.5" y="0" width="35.5" height="35.5" fill="#0c4f64"/><path d="M 745.5 0 A 35.5 35.5 0 0 1  781 35.5 L 745.5 0 A 35.5 35.5 0 0 0 781 35.5" fill="#0a9294"/><rect x="710" y="35.5" width="35.5" height="35.5" fill="#0c495f"/><path d="M 710 71 A 35.5 35.5 0 0 1  745.5 35.5 L 745.5 71" fill="#0c5e6f"/><rect x="745.5" y="35.5" width="35.5" height="35.5" fill="#0c5d6d"/><path d="M 745.5 35.5 A 35.5 35.5 0 0 0 781 71 L 781 35.5" fill="#0d3c56"/><rect x="781" y="0" width="71" height="71" fill="#0d3450"/><rect x="781" y="0" width="35.5" height="35.5" fill="#0a888c"/><path d="M 781 0 A 35.5 35.5 0 0 0 816.5 35.5 L 816.5 0" fill="#0b8288"/><rect x="816.5" y="0" width="35.5" height="35.5" fill="#0d3753"/><path d="M 816.5 0 A 35.5 35.5 0 0 1 852 35.5 L 816.5 35.5" fill="#0b767f"/><rect x="781" y="35.5" width="35.5" height="35.5" fill="#0b7981"/><path d="M 781 71 A 35.5 35.5 0 0 1  816.5 35.5 L 816.5 71" fill="#0b6a77"/><rect x="816.5" y="35.5" width="35.5" height="35.5" fill="#0c4a60"/><path d="M 816.5 71 A 35.5 35.5 0 0 1  852 35.5 L 816.5 71 A 35.5 35.5 0 0 0 852 35.5" fill="#0b6f7a"/><rect x="852" y="0" width="71" height="71" fill="#0d3954"/><path d="M 852 0 A 71 71 0 0 1  923 71 L 852 0 A 71 71 0 0 0 923 71" fill="#0b717c"/><rect x="923" y="0" width="71" height="71" fill="#0c5567"/><path d="M 923 71 A 71 71 0 0 0 994 0 L 923 0" fill="#0b707b"/><rect x="994" y="0" width="71" height="71" fill="#0d3450"/><rect x="994" y="0" width="35.5" height="35.5" fill="#0b7680"/><path d="M 994 0 A 35.5 35.5 0 0 0 1029.5 35.5 L 1029.5 0" fill="#0d3651"/><rect x="1029.5" y="0" width="35.5" height="35.5" fill="#0b6976"/><path d="M 1029.5 0 A 35.5 35.5 0 0 0 1065 35.5 L 1065 0" fill="#0a8e90"/><rect x="994" y="35.5" width="35.5" height="35.5" fill="#0c5769"/><path d="M 994 71 A 35.5 35.5 0 0 1  1029.5 35.5 L 994 71 A 35.5 35.5 0 0 0 1029.5 35.5" fill="#0c5165"/><rect x="1029.5" y="35.5" width="35.5" height="35.5" fill="#0c455c"/><path d="M 1029.5 35.5 A 35.5 35.5 0 0 1 1065 71 L 1029.5 71" fill="#0c5b6c"/><rect x="1065" y="0" width="71" height="71" fill="#0d3450"/><rect x="1065" y="0" width="35.5" height="35.5" fill="#0a9697"/><path d="M 1065 0 A 35.5 35.5 0 0 0 1100.5 35.5 L 1100.5 0" fill="#0c6170"/><rect x="1100.5" y="0" width="35.5" height="35.5" fill="#0c6472"/><path d="M 1100.5 0 A 35.5 35.5 0 0 1  1136 35.5 L 1100.5 0 A 35.5 35.5 0 0 0 1136 35.5" fill="#0b6c78"/><rect x="1065" y="35.5" width="35.5" height="35.5" fill="#0b868b"/><path d="M 1065 71 A 35.5 35.5 0 0 1  1100.5 35.5 L 1100.5 71" fill="#0c485f"/><rect x="1100.5" y="35.5" width="35.5" height="35.5" fill="#0c4c61"/><path d="M 1100.5 35.5 A 35.5 35.5 0 0 1 1136 71 L 1100.5 71" fill="#0c586a"/><rect x="0" y="71" width="71" height="71" fill="#0a8a8e"/><path d="M 0 142 A 71 71 0 0 0 71 71 L 0 71" fill="#0a8c90"/><rect x="71" y="71" width="71" height="71" fill="#0d3450"/><rect x="71" y="71" width="35.5" height="35.5" fill="#0d3a54"/><path d="M 71 71 A 35.5 35.5 0 0 0 106.5 106.5 L 106.5 71" fill="#0a9294"/><rect x="106.5" y="71" width="35.5" height="35.5" fill="#0b6b78"/><path d="M 106.5 106.5 A 35.5 35.5 0 0 0 142 71 L 106.5 71" fill="#0b8288"/><rect x="71" y="106.5" width="35.5" height="35.5" fill="#0d3e57"/><path d="M 71 106.5 A 35.5 35.5 0 0 1  106.5 142 L 71 106.5 A 35.5 35.5 0 0 0 106.5 142" fill="#0d4059"/><rect x="106.5" y="106.5" width="35.5" height="35.5" fill="#0c586a"/><path d="M 106.5 106.5 A 35.5 35.5 0 0 1  142 142 L 106.5 106.5 A 35.5 35.5 0 0 0 142 142" fill="#0c5568"/><rect x="142" y="71" width="71" height="71" fill="#0d3450"/><rect x="142" y="71" width="35.5" height="35.5" fill="#0c475e"/><path d="M 142 71 A 35.5 35.5 0 0 1  177.5 106.5 L 142 71 A 35.5 35.5 0 0 0 177.5 106.5" fill="#0c5064"/><rect x="177.5" y="71" width="35.5" height="35.5" fill="#0c4d62"/><path d="M 177.5 71 A 35.5 35.5 0 0 1 213 106.5 L 177.5 106.5" fill="#0c5d6e"/><rect x="142" y="106.5" width="35.5" height="35.5" fill="#0b7881"/><path d="M 142 142 A 35.5 35.5 0 0 0 177.5 106.5 L 142 106.5" fill="#0b6976"/><rect x="177.5" y="106.5" width="35.5" height="35.5" fill="#0b737d"/><path d="M 177.5 142 A 35.5 35.5 0 0 1  213 106.5 L 213 142" fill="#0a9495"/><rect x="213" y="71" width="71" height="71" fill="#0d3450"/><rect x="213" y="71" width="35.5" height="35.5" fill="#0a8a8e"/><path d="M 213 71 A 35.5 35.5 0 0 0 248.5 106.5 L 248.5 71" fill="#0a9697"/><rect x="248.5" y="71" width="35.5" height="35.5" fill="#0c4c61"/><path d="M 248.5 71 A 35.5 35.5 0 0 0 284 106.5 L 284 71" fill="#0d435b"/><rect x="213" y="106.5" width="35.5" height="35.5" fill="#0d3b55"/><path d="M 213 106.5 A 35.5 35.5 0 0 1  248.5 142 L 213 106.5 A 35.5 35.5 0 0 0 248.5 142" fill="#0d3954"/><rect x="248.5" y="106.5" width="35.5" height="35.5" fill="#0d4159"/><path d="M 248.5 142 A 35.5 35.5 0 0 1  284 106.5 L 284 142" fill="#0c5c6d"/><rect x="284" y="71" width="71" height="71" fill="#0d3450"/><rect x="284" y="71" width="35.5" height="35.5" fill="#0c475d"/><path d="M 284 106.5 A 35.5 35.5 0 0 1  319.5 71 L 319.5 106.5" fill="#0a9394"/><rect x="319.5" y="71" width="35.5" height="35.5" fill="#0b7780"/><path d="M 319.5 106.5 A 35.5 35.5 0 0 1  355 71 L 319.5 106.5 A 35.5 35.5 0 0 0 355 71" fill="#0c5a6c"/><rect x="284" y="106.5" width="35.5" height="35.5" fill="#0b7d85"/><path d="M 284 142 A 35.5 35.5 0 0 1  319.5 106.5 L 319.5 142" fill="#0b878c"/><rect x="319.5" y="106.5" width="35.5" height="35.5" fill="#0b7881"/><path d="M 319.5 106.5 A 35.5 35.5 0 0 0 355 142 L 355 106.5" fill="#0c5b6c"/><rect x="355" y="71" width="71" height="71" fill="#0d3450"/><rect x="355" y="71" width="35.5" height="35.5" fill="#0b6775"/><path d="M 355 71 A 35.5 35.5 0 0 1 390.5 106.5 L 355 106.5" fill="#0b7e85"/><rect x="390.5" y="71" width="35.5" height="35.5" fill="#0b8087"/><path d="M 390.5 71 A 35.5 35.5 0 0 1  426 106.5 L 390.5 71 A 35.5 35.5 0 0 0 426 106.5" fill="#0b717c"/><rect x="355" y="106.5" width="35.5" height="35.5" fill="#0c586a"/><path d="M 355 142 A 35.5 35.5 0 0 1  390.5 106.5 L 390.5 142" fill="#0b6c78"/><rect x="390.5" y="106.5" width="35.5" height="35.5" fill="#0d3a54"/><path d="M 390.5 106.5 A 35.5 35.5 0 0 1  426 142 L 390.5 106.5 A 35.5 35.5 0 0 0 426 142" fill="#0c6573"/><rect x="426" y="71" width="71" height="71" fill="#0d3450"/><rect x="426" y="71" width="35.5" height="35.5" fill="#0b848a"/><path d="M 426 71 A 35.5 35.5 0 0 0 461.5 106.5 L 461.5 71" fill="#0b878c"/><rect x="461.5" y="71" width="35.5" height="35.5" fill="#0b7e85"/><path d="M 461.5 71 A 35.5 35.5 0 0 1 497 106.5 L 461.5 106.5" fill="#0c5c6d"/><rect x="426" y="106.5" width="35.5" height="35.5" fill="#0a9395"/><path d="M 426 142 A 35.5 35.5 0 0 1  461.5 106.5 L 426 142 A 35.5 35.5 0 0 0 461.5 106.5" fill="#0b8288"/><rect x="461.5" y="106.5" width="35.5" height="35.5" fill="#0b7d84"/><path d="M 461.5 106.5 A 35.5 35.5 0 0 0 497 142 L 497 106.5" fill="#0a9495"/><rect x="497" y="71" width="71" height="71" fill="#0d3450"/><rect x="497" y="71" width="35.5" height="35.5" fill="#0d4159"/><path d="M 497 71 A 35.5 35.5 0 0 0 532.5 106.5 L 532.5 71" fill="#0c4c61"/><rect x="532.5" y="71" width="35.5" height="35.5" fill="#0c6372"/><path d="M 532.5 106.5 A 35.5 35.5 0 0 1  568 71 L 532.5 106.5 A 35.5 35.5 0 0 0 568 71" fill="#0d3652"/><rect x="497" y="106.5" width="35.5" height="35.5" fill="#0a9193"/><path d="M 497 142 A 35.5 35.5 0 0 1  532.5 106.5 L 532.5 142" fill="#0a8d90"/><rect x="532.5" y="106.5" width="35.5" height="35.5" fill="#0a9294"/><path d="M 532.5 142 A 35.5 35.5 0 0 1  568 106.5 L 568 142" fill="#0c6070"/><rect x="568" y="71" width="71" height="71" fill="#0d3450"/><rect x="568" y="71" width="35.5" height="35.5" fill="#0c475e"/><path d="M 568 106.5 A 35.5 35.5 0 0 0 603.5 71 L 568 71" fill="#0c4b61"/><rect x="603.5" y="71" width="35.5" height="35.5" fill="#0b6e7a"/><path d="M 603.5 106.5 A 35.5 35.5 0 0 1  639 71 L 639 106.5" fill="#0a898d"/><rect x="568" y="106.5" width="35.5" height="35.5" fill="#0c6271"/><path d="M 568 106.5 A 35.5 35.5 0 0 0 603.5 142 L 603.5 106.5" fill="#0d4159"/><rect x="603.5" y="106.5" width="35.5" height="35.5" fill="#0c6170"/><path d="M 603.5 106.5 A 35.5 35.5 0 0 1 639 142 L 603.5 142" fill="#0c6574"/><rect x="639" y="71" width="71" height="71" fill="#0d3450"/><rect x="639" y="71" width="35.5" height="35.5" fill="#0b8489"/><path d="M 639 71 A 35.5 35.5 0 0 1 674.5 106.5 L 639 106.5" fill="#0b7f86"/><rect x="674.5" y="71" width="35.5" height="35.5" fill="#0c6271"/><path d="M 674.5 106.5 A 35.5 35.5 0 0 0 710 71 L 674.5 71" fill="#0a9495"/><rect x="639" y="106.5" width="35.5" height="35.5" fill="#0c4b60"/><path d="M 639 106.5 A 35.5 35.5 0 0 0 674.5 142 L 674.5 106.5" fill="#0d4059"/><rect x="674.5" y="106.5" width="35.5" height="35.5" fill="#0b6e7a"/><path d="M 674.5 106.5 A 35.5 35.5 0 0 1  710 142 L 674.5 106.5 A 35.5 35.5 0 0 0 710 142" fill="#0c5366"/><rect x="710" y="71" width="71" height="71" fill="#0d3450"/><rect x="710" y="71" width="35.5" height="35.5" fill="#0c4f63"/><path d="M 710 106.5 A 35.5 35.5 0 0 1  745.5 71 L 745.5 106.5" fill="#0c606f"/><rect x="745.5" y="71" width="35.5" height="35.5" fill="#0c485e"/><path d="M 745.5 71 A 35.5 35.5 0 0 1 781 106.5 L 745.5 106.5" fill="#0b6875"/><rect x="710" y="106.5" width="35.5" height="35.5" fill="#0d425a"/><path d="M 710 106.5 A 35.5 35.5 0 0 0 745.5 142 L 745.5 106.5" fill="#0c5d6e"/><rect x="745.5" y="106.5" width="35.5" height="35.5" fill="#0b767f"/><path d="M 745.5 142 A 35.5 35.5 0 0 1  781 106.5 L 781 142" fill="#0c4b61"/><rect x="781" y="71" width="71" height="71" fill="#0d3450"/><rect x="781" y="71" width="35.5" height="35.5" fill="#0a9293"/><path d="M 781 106.5 A 35.5 35.5 0 0 1  816.5 71 L 781 106.5 A 35.5 35.5 0 0 0 816.5 71" fill="#0a8f91"/><rect x="816.5" y="71" width="35.5" height="35.5" fill="#0d3651"/><path d="M 816.5 106.5 A 35.5 35.5 0 0 1  852 71 L 816.5 106.5 A 35.5 35.5 0 0 0 852 71" fill="#0d3c56"/><rect x="781" y="106.5" width="35.5" height="35.5" fill="#0b878c"/><path d="M 781 106.5 A 35.5 35.5 0 0 1 816.5 142 L 781 142" fill="#0d435b"/><rect x="816.5" y="106.5" width="35.5" height="35.5" fill="#0a8e91"/><path d="M 816.5 142 A 35.5 35.5 0 0 0 852 106.5 L 816.5 106.5" fill="#0b8087"/><rect x="852" y="71" width="71" height="71" fill="#0d3450"/><rect x="852" y="71" width="35.5" height="35.5" fill="#0b707b"/><path d="M 852 71 A 35.5 35.5 0 0 0 887.5 106.5 L 887.5 71" fill="#0c6271"/><rect x="887.5" y="71" width="35.5" height="35.5" fill="#0b8187"/><path d="M 887.5 71 A 35.5 35.5 0 0 0 923 106.5 L 923 71" fill="#0c6170"/><rect x="852" y="106.5" width="35.5" height="35.5" fill="#0c455c"/><path d="M 852 142 A 35.5 35.5 0 0 0 887.5 106.5 L 852 106.5" fill="#0b6d79"/><rect x="887.5" y="106.5" width="35.5" height="35.5" fill="#0d3a55"/><path d="M 887.5 106.5 A 35.5 35.5 0 0 1  923 142 L 887.5 106.5 A 35.5 35.5 0 0 0 923 142" fill="#0c596b"/><rect x="923" y="71" width="71" height="71" fill="#0b7c84"/><path d="M 923 142 A 71 71 0 0 1  994 71 L 923 142 A 71 71 0 0 0 994 71" fill="#0d3a54"/><rect x="994" y="71" width="71" height="71" fill="#0c4a60"/><path d="M 994 142 A 71 71 0 0 1  1065 71 L 994 142 A 71 71 0 0 0 1065 71" fill="#0b858b"/><rect x="1065" y="71" width="71" height="71" fill="#0d3450"/><rect x="1065" y="71" width="35.5" height="35.5" fill="#0b747e"/><path d="M 1065 106.5 A 35.5 35.5 0 0 1  1100.5 71 L 1100.5 106.5" fill="#0a8f91"/><rect x="1100.5" y="71" width="35.5" height="35.5" fill="#0c4c62"/><path d="M 1100.5 106.5 A 35.5 35.5 0 0 1  1136 71 L 1136 106.5" fill="#0d3752"/><rect x="1065" y="106.5" width="35.5" height="35.5" fill="#0d3b55"/><path d="M 1065 106.5 A 35.5 35.5 0 0 1  1100.5 142 L 1065 106.5 A 35.5 35.5 0 0 0 1100.5 142" fill="#0d3d56"/><rect x="1100.5" y="106.5" width="35.5" height="35.5" fill="#0c6170"/><path d="M 1100.5 142 A 35.5 35.5 0 0 1  1136 106.5 L 1100.5 142 A 35.5 35.5 0 0 0 1136 106.5" fill="#0a9495"/><rect x="0" y="142" width="71" height="71" fill="#0b6a77"/><path d="M 0 213 A 71 71 0 0 1  71 142 L 71 213" fill="#0a8e90"/><rect x="71" y="142" width="71" height="71" fill="#0c6271"/><path d="M 71 142 A 71 71 0 0 1  142 213 L 71 142 A 71 71 0 0 0 142 213" fill="#0c4d62"/><rect x="142" y="142" width="71" height="71" fill="#0d3450"/><rect x="142" y="142" width="35.5" height="35.5" fill="#0a9293"/><path d="M 142 142 A 35.5 35.5 0 0 1  177.5 177.5 L 142 142 A 35.5 35.5 0 0 0 177.5 177.5" fill="#0d3d56"/><rect x="177.5" y="142" width="35.5" height="35.5" fill="#0b6b78"/><path d="M 177.5 177.5 A 35.5 35.5 0 0 1  213 142 L 177.5 177.5 A 35.5 35.5 0 0 0 213 142" fill="#0c5769"/><rect x="142" y="177.5" width="35.5" height="35.5" fill="#0a8a8e"/><path d="M 142 213 A 35.5 35.5 0 0 1  177.5 177.5 L 142 213 A 35.5 35.5 0 0 0 177.5 177.5" fill="#0a9394"/><rect x="177.5" y="177.5" width="35.5" height="35.5" fill="#0b717c"/><path d="M 177.5 213 A 35.5 35.5 0 0 1  213 177.5 L 177.5 213 A 35.5 35.5 0 0 0 213 177.5" fill="#0c5165"/><rect x="213" y="142" width="71" height="71" fill="#0c5568"/><path d="M 213 142 A 71 71 0 0 1 284 213 L 213 213" fill="#0c6574"/><rect x="284" y="142" width="71" height="71" fill="#0d3450"/><rect x="284" y="142" width="35.5" height="35.5" fill="#0b8288"/><path d="M 284 177.5 A 35.5 35.5 0 0 0 319.5 142 L 284 142" fill="#0d3d56"/><rect x="319.5" y="142" width="35.5" height="35.5" fill="#0c465d"/><path d="M 319.5 142 A 35.5 35.5 0 0 1 355 177.5 L 319.5 177.5" fill="#0c5c6d"/><rect x="284" y="177.5" width="35.5" height="35.5" fill="#0b727d"/><path d="M 284 177.5 A 35.5 35.5 0 0 1 319.5 213 L 284 213" fill="#0b6c79"/><rect x="319.5" y="177.5" width="35.5" height="35.5" fill="#0b6e7a"/><path d="M 319.5 177.5 A 35.5 35.5 0 0 0 355 213 L 355 177.5" fill="#0b6c78"/><rect x="355" y="142" width="71" height="71" fill="#0d3853"/><path d="M 355 213 A 71 71 0 0 0 426 142 L 355 142" fill="#0d3651"/><rect x="426" y="142" width="71" height="71" fill="#0d3450"/><rect x="426" y="142" width="35.5" height="35.5" fill="#0a8f91"/><path d="M 426 177.5 A 35.5 35.5 0 0 0 461.5 142 L 426 142" fill="#0c465d"/><rect x="461.5" y="142" width="35.5" height="35.5" fill="#0d445b"/><path d="M 461.5 142 A 35.5 35.5 0 0 1 497 177.5 L 461.5 177.5" fill="#0b6976"/><rect x="426" y="177.5" width="35.5" height="35.5" fill="#0c4e63"/><path d="M 426 177.5 A 35.5 35.5 0 0 1  461.5 213 L 426 177.5 A 35.5 35.5 0 0 0 461.5 213" fill="#0d4159"/><rect x="461.5" y="177.5" width="35.5" height="35.5" fill="#0b707b"/><path d="M 461.5 213 A 35.5 35.5 0 0 0 497 177.5 L 461.5 177.5" fill="#0a9697"/><rect x="497" y="142" width="71" height="71" fill="#0d4159"/><path d="M 497 213 A 71 71 0 0 0 568 142 L 497 142" fill="#0a9898"/><rect x="568" y="142" width="71" height="71" fill="#0d3450"/><rect x="568" y="142" width="35.5" height="35.5" fill="#0d3b55"/><path d="M 568 177.5 A 35.5 35.5 0 0 1  603.5 142 L 603.5 177.5" fill="#0c5265"/><rect x="603.5" y="142" width="35.5" height="35.5" fill="#0c495f"/><path d="M 603.5 177.5 A 35.5 35.5 0 0 0 639 142 L 603.5 142" fill="#0c586a"/><rect x="568" y="177.5" width="35.5" height="35.5" fill="#0d4059"/><path d="M 568 177.5 A 35.5 35.5 0 0 1  603.5 213 L 568 177.5 A 35.5 35.5 0 0 0 603.5 213" fill="#0a8c8f"/><rect x="603.5" y="177.5" width="35.5" height="35.5" fill="#0b878c"/><path d="M 603.5 213 A 35.5 35.5 0 0 1  639 177.5 L 639 213" fill="#0b747e"/><rect x="639" y="142" width="71" height="71" fill="#0d3450"/><rect x="639" y="142" width="35.5" height="35.5" fill="#0c5769"/><path d="M 639 177.5 A 35.5 35.5 0 0 1  674.5 142 L 639 177.5 A 35.5 35.5 0 0 0 674.5 142" fill="#0a888c"/><rect x="674.5" y="142" width="35.5" height="35.5" fill="#0d3f58"/><path d="M 674.5 142 A 35.5 35.5 0 0 1  710 177.5 L 674.5 142 A 35.5 35.5 0 0 0 710 177.5" fill="#0c4a60"/><rect x="639" y="177.5" width="35.5" height="35.5" fill="#0b8288"/><path d="M 639 213 A 35.5 35.5 0 0 0 674.5 177.5 L 639 177.5" fill="#0d3d56"/><rect x="674.5" y="177.5" width="35.5" height="35.5" fill="#0b757f"/><path d="M 674.5 213 A 35.5 35.5 0 0 1  710 177.5 L 710 213" fill="#0a9394"/><rect x="710" y="142" width="71" height="71" fill="#0d3450"/><rect x="710" y="142" width="35.5" height="35.5" fill="#0d3f58"/><path d="M 710 177.5 A 35.5 35.5 0 0 1  745.5 142 L 745.5 177.5" fill="#0c4c61"/><rect x="745.5" y="142" width="35.5" height="35.5" fill="#0a8a8e"/><path d="M 745.5 177.5 A 35.5 35.5 0 0 0 781 142 L 745.5 142" fill="#0a8c8f"/><rect x="710" y="177.5" width="35.5" height="35.5" fill="#0b6e7a"/><path d="M 710 213 A 35.5 35.5 0 0 0 745.5 177.5 L 710 177.5" fill="#0b8087"/><rect x="745.5" y="177.5" width="35.5" height="35.5" fill="#0d3b55"/><path d="M 745.5 213 A 35.5 35.5 0 0 0 781 177.5 L 745.5 177.5" fill="#0c5d6d"/><rect x="781" y="142" width="71" height="71" fill="#0d3450"/><rect x="781" y="142" width="35.5" height="35.5" fill="#0d3551"/><path d="M 781 142 A 35.5 35.5 0 0 1  816.5 177.5 L 781 142 A 35.5 35.5 0 0 0 816.5 177.5" fill="#0b6f7b"/><rect x="816.5" y="142" width="35.5" height="35.5" fill="#0c6372"/><path d="M 816.5 177.5 A 35.5 35.5 0 0 0 852 142 L 816.5 142" fill="#0c5467"/><rect x="781" y="177.5" width="35.5" height="35.5" fill="#0c5a6b"/><path d="M 781 177.5 A 35.5 35.5 0 0 1 816.5 213 L 781 213" fill="#0d445c"/><rect x="816.5" y="177.5" width="35.5" height="35.5" fill="#0a9395"/><path d="M 816.5 213 A 35.5 35.5 0 0 0 852 177.5 L 816.5 177.5" fill="#0a9697"/><rect x="852" y="142" width="71" height="71" fill="#0b7780"/><path d="M 852 213 A 71 71 0 0 1  923 142 L 852 213 A 71 71 0 0 0 923 142" fill="#0c586a"/><rect x="923" y="142" width="71" height="71" fill="#0d3450"/><rect x="923" y="142" width="35.5" height="35.5" fill="#0b6775"/><path d="M 923 142 A 35.5 35.5 0 0 1 958.5 177.5 L 923 177.5" fill="#0c596b"/><rect x="958.5" y="142" width="35.5" height="35.5" fill="#0d4059"/><path d="M 958.5 177.5 A 35.5 35.5 0 0 0 994 142 L 958.5 142" fill="#0b6e7a"/><rect x="923" y="177.5" width="35.5" height="35.5" fill="#0c4e63"/><path d="M 923 177.5 A 35.5 35.5 0 0 1  958.5 213 L 923 177.5 A 35.5 35.5 0 0 0 958.5 213" fill="#0d3752"/><rect x="958.5" y="177.5" width="35.5" height="35.5" fill="#0c4b61"/><path d="M 958.5 177.5 A 35.5 35.5 0 0 1  994 213 L 958.5 177.5 A 35.5 35.5 0 0 0 994 213" fill="#0a9797"/><rect x="994" y="142" width="71" height="71" fill="#0d3450"/><rect x="994" y="142" width="35.5" height="35.5" fill="#0c5d6d"/><path d="M 994 177.5 A 35.5 35.5 0 0 0 1029.5 142 L 994 142" fill="#0c5e6f"/><rect x="1029.5" y="142" width="35.5" height="35.5" fill="#0c4b60"/><path d="M 1029.5 142 A 35.5 35.5 0 0 1  1065 177.5 L 1029.5 142 A 35.5 35.5 0 0 0 1065 177.5" fill="#0c4c61"/><rect x="994" y="177.5" width="35.5" height="35.5" fill="#0d3a54"/><path d="M 994 177.5 A 35.5 35.5 0 0 1  1029.5 213 L 994 177.5 A 35.5 35.5 0 0 0 1029.5 213" fill="#0c5d6d"/><rect x="1029.5" y="177.5" width="35.5" height="35.5" fill="#0b6b78"/><path d="M 1029.5 213 A 35.5 35.5 0 0 0 1065 177.5 L 1029.5 177.5" fill="#0c5165"/><rect x="1065" y="142" width="71" height="71" fill="#0b7a82"/><path d="M 1065 213 A 71 71 0 0 0 1136 142 L 1065 142" fill="#0b7a82"/><rect x="0" y="213" width="71" height="71" fill="#0d3450"/><rect x="0" y="213" width="35.5" height="35.5" fill="#0b737e"/><path d="M 0 213 A 35.5 35.5 0 0 1 35.5 248.5 L 0 248.5" fill="#0b7e85"/><rect x="35.5" y="213" width="35.5" height="35.5" fill="#0d4059"/><path d="M 35.5 213 A 35.5 35.5 0 0 0 71 248.5 L 71 213" fill="#0b6f7b"/><rect x="0" y="248.5" width="35.5" height="35.5" fill="#0a9696"/><path d="M 0 284 A 35.5 35.5 0 0 1  35.5 248.5 L 0 284 A 35.5 35.5 0 0 0 35.5 248.5" fill="#0a8e91"/><rect x="35.5" y="248.5" width="35.5" height="35.5" fill="#0c4b60"/><path d="M 35.5 248.5 A 35.5 35.5 0 0 1 71 284 L 35.5 284" fill="#0c4c62"/><rect x="71" y="213" width="71" height="71" fill="#0b7982"/><path d="M 71 213 A 71 71 0 0 1 142 284 L 71 284" fill="#0c586a"/><rect x="142" y="213" width="71" height="71" fill="#0d3752"/><path d="M 142 284 A 71 71 0 0 1  213 213 L 142 284 A 71 71 0 0 0 213 213" fill="#0a9898"/><rect x="213" y="213" width="71" height="71" fill="#0c5669"/><path d="M 213 213 A 71 71 0 0 0 284 284 L 284 213" fill="#0d3853"/><rect x="284" y="213" width="71" height="71" fill="#0d3450"/><rect x="284" y="213" width="35.5" height="35.5" fill="#0c6271"/><path d="M 284 248.5 A 35.5 35.5 0 0 1  319.5 213 L 319.5 248.5" fill="#0a9092"/><rect x="319.5" y="213" width="35.5" height="35.5" fill="#0a9495"/><path d="M 319.5 213 A 35.5 35.5 0 0 0 355 248.5 L 355 213" fill="#0b7c84"/><rect x="284" y="248.5" width="35.5" height="35.5" fill="#0a8d90"/><path d="M 284 248.5 A 35.5 35.5 0 0 0 319.5 284 L 319.5 248.5" fill="#0b747e"/><rect x="319.5" y="248.5" width="35.5" height="35.5" fill="#0c465d"/><path d="M 319.5 284 A 35.5 35.5 0 0 1  355 248.5 L 355 284" fill="#0b868b"/><rect x="355" y="213" width="71" height="71" fill="#0c5366"/><path d="M 355 284 A 71 71 0 0 1  426 213 L 355 284 A 71 71 0 0 0 426 213" fill="#0c455c"/><rect x="426" y="213" width="71" height="71" fill="#0d3450"/><rect x="426" y="213" width="35.5" height="35.5" fill="#0d425a"/><path d="M 426 213 A 35.5 35.5 0 0 1  461.5 248.5 L 426 213 A 35.5 35.5 0 0 0 461.5 248.5" fill="#0b7b83"/><rect x="461.5" y="213" width="35.5" height="35.5" fill="#0b8389"/><path d="M 461.5 248.5 A 35.5 35.5 0 0 0 497 213 L 461.5 213" fill="#0d3e58"/><rect x="426" y="248.5" width="35.5" height="35.5" fill="#0b7982"/><path d="M 426 248.5 A 35.5 35.5 0 0 1  461.5 284 L 426 248.5 A 35.5 35.5 0 0 0 461.5 284" fill="#0c5669"/><rect x="461.5" y="248.5" width="35.5" height="35.5" fill="#0b8288"/><path d="M 461.5 284 A 35.5 35.5 0 0 0 497 248.5 L 461.5 248.5" fill="#0c5467"/><rect x="497" y="213" width="71" height="71" fill="#0a9898"/><path d="M 497 213 A 71 71 0 0 1 568 284 L 497 284" fill="#0c5c6d"/><rect x="568" y="213" width="71" height="71" fill="#0c5467"/><path d="M 568 284 A 71 71 0 0 1  639 213 L 639 284" fill="#0d4059"/><rect x="639" y="213" width="71" height="71" fill="#0c6372"/><path d="M 639 284 A 71 71 0 0 1  710 213 L 710 284" fill="#0c5266"/><rect x="710" y="213" width="71" height="71" fill="#0b8188"/><path d="M 710 213 A 71 71 0 0 1 781 284 L 710 284" fill="#0b6e7a"/><rect x="781" y="213" width="71" height="71" fill="#0d3450"/><rect x="781" y="213" width="35.5" height="35.5" fill="#0c6271"/><path d="M 781 213 A 35.5 35.5 0 0 1  816.5 248.5 L 781 213 A 35.5 35.5 0 0 0 816.5 248.5" fill="#0c5064"/><rect x="816.5" y="213" width="35.5" height="35.5" fill="#0b6775"/><path d="M 816.5 213 A 35.5 35.5 0 0 1 852 248.5 L 816.5 248.5" fill="#0b7881"/><rect x="781" y="248.5" width="35.5" height="35.5" fill="#0c6271"/><path d="M 781 284 A 35.5 35.5 0 0 0 816.5 248.5 L 781 248.5" fill="#0a888c"/><rect x="816.5" y="248.5" width="35.5" height="35.5" fill="#0a9193"/><path d="M 816.5 284 A 35.5 35.5 0 0 1  852 248.5 L 852 284" fill="#0b7c84"/><rect x="852" y="213" width="71" height="71" fill="#0d3450"/><rect x="852" y="213" width="35.5" height="35.5" fill="#0c5467"/><path d="M 852 213 A 35.5 35.5 0 0 1 887.5 248.5 L 852 248.5" fill="#0b7881"/><rect x="887.5" y="213" width="35.5" height="35.5" fill="#0c5568"/><path d="M 887.5 248.5 A 35.5 35.5 0 0 0 923 213 L 887.5 213" fill="#0a8e91"/><rect x="852" y="248.5" width="35.5" height="35.5" fill="#0a8d90"/><path d="M 852 248.5 A 35.5 35.5 0 0 1 887.5 284 L 852 284" fill="#0d3551"/><rect x="887.5" y="248.5" width="35.5" height="35.5" fill="#0c495f"/><path d="M 887.5 248.5 A 35.5 35.5 0 0 1 923 284 L 887.5 284" fill="#0b6c79"/><rect x="923" y="213" width="71" height="71" fill="#0c485f"/><path d="M 923 284 A 71 71 0 0 0 994 213 L 923 213" fill="#0d3550"/><rect x="994" y="213" width="71" height="71" fill="#0b7982"/><path d="M 994 284 A 71 71 0 0 1  1065 213 L 994 284 A 71 71 0 0 0 1065 213" fill="#0c475d"/><rect x="1065" y="213" width="71" height="71" fill="#0c6573"/><path d="M 1065 284 A 71 71 0 0 0 1136 213 L 1065 213" fill="#0a9193"/><rect x="0" y="284" width="71" height="71" fill="#0d3450"/><rect x="0" y="284" width="35.5" height="35.5" fill="#0c4e63"/><path d="M 0 284 A 35.5 35.5 0 0 1  35.5 319.5 L 0 284 A 35.5 35.5 0 0 0 35.5 319.5" fill="#0d3d57"/><rect x="35.5" y="284" width="35.5" height="35.5" fill="#0c5064"/><path d="M 35.5 319.5 A 35.5 35.5 0 0 0 71 284 L 35.5 284" fill="#0b727c"/><rect x="0" y="319.5" width="35.5" height="35.5" fill="#0c5d6e"/><path d="M 0 355 A 35.5 35.5 0 0 1  35.5 319.5 L 0 355 A 35.5 35.5 0 0 0 35.5 319.5" fill="#0b717c"/><rect x="35.5" y="319.5" width="35.5" height="35.5" fill="#0a8a8e"/><path d="M 35.5 355 A 35.5 35.5 0 0 1  71 319.5 L 35.5 355 A 35.5 35.5 0 0 0 71 319.5" fill="#0c6573"/><rect x="71" y="284" width="71" height="71" fill="#0d3450"/><rect x="71" y="284" width="35.5" height="35.5" fill="#0a8b8f"/><path d="M 71 319.5 A 35.5 35.5 0 0 1  106.5 284 L 71 319.5 A 35.5 35.5 0 0 0 106.5 284" fill="#0c4d62"/><rect x="106.5" y="284" width="35.5" height="35.5" fill="#0d445b"/><path d="M 106.5 284 A 35.5 35.5 0 0 1  142 319.5 L 106.5 284 A 35.5 35.5 0 0 0 142 319.5" fill="#0c4d62"/><rect x="71" y="319.5" width="35.5" height="35.5" fill="#0c4c62"/><path d="M 71 319.5 A 35.5 35.5 0 0 1  106.5 355 L 71 319.5 A 35.5 35.5 0 0 0 106.5 355" fill="#0c6070"/><rect x="106.5" y="319.5" width="35.5" height="35.5" fill="#0c5a6c"/><path d="M 106.5 355 A 35.5 35.5 0 0 1  142 319.5 L 106.5 355 A 35.5 35.5 0 0 0 142 319.5" fill="#0c5e6e"/><rect x="142" y="284" width="71" height="71" fill="#0b7d85"/><path d="M 142 355 A 71 71 0 0 1  213 284 L 213 355" fill="#0c5165"/><rect x="213" y="284" width="71" height="71" fill="#0d3450"/><rect x="213" y="284" width="35.5" height="35.5" fill="#0a8e91"/><path d="M 213 284 A 35.5 35.5 0 0 0 248.5 319.5 L 248.5 284" fill="#0c5a6b"/><rect x="248.5" y="284" width="35.5" height="35.5" fill="#0b8188"/><path d="M 248.5 319.5 A 35.5 35.5 0 0 0 284 284 L 248.5 284" fill="#0c455c"/><rect x="213" y="319.5" width="35.5" height="35.5" fill="#0d3a55"/><path d="M 213 355 A 35.5 35.5 0 0 1  248.5 319.5 L 248.5 355" fill="#0d445c"/><rect x="248.5" y="319.5" width="35.5" height="35.5" fill="#0b868b"/><path d="M 248.5 319.5 A 35.5 35.5 0 0 1  284 355 L 248.5 319.5 A 35.5 35.5 0 0 0 284 355" fill="#0d435b"/><rect x="284" y="284" width="71" height="71" fill="#0a9293"/><path d="M 284 284 A 71 71 0 0 1  355 355 L 284 284 A 71 71 0 0 0 355 355" fill="#0b8087"/><rect x="355" y="284" width="71" height="71" fill="#0d3450"/><rect x="355" y="284" width="35.5" height="35.5" fill="#0d3f58"/><path d="M 355 284 A 35.5 35.5 0 0 1 390.5 319.5 L 355 319.5" fill="#0d3d56"/><rect x="390.5" y="284" width="35.5" height="35.5" fill="#0c5f6f"/><path d="M 390.5 319.5 A 35.5 35.5 0 0 1  426 284 L 426 319.5" fill="#0b757f"/><rect x="355" y="319.5" width="35.5" height="35.5" fill="#0c6372"/><path d="M 355 355 A 35.5 35.5 0 0 0 390.5 319.5 L 355 319.5" fill="#0c5165"/><rect x="390.5" y="319.5" width="35.5" height="35.5" fill="#0c5165"/><path d="M 390.5 355 A 35.5 35.5 0 0 1  426 319.5 L 390.5 355 A 35.5 35.5 0 0 0 426 319.5" fill="#0c5a6c"/><rect x="426" y="284" width="71" height="71" fill="#0d3450"/><rect x="426" y="284" width="35.5" height="35.5" fill="#0b868b"/><path d="M 426 284 A 35.5 35.5 0 0 1 461.5 319.5 L 426 319.5" fill="#0c485f"/><rect x="461.5" y="284" width="35.5" height="35.5" fill="#0a898e"/><path d="M 461.5 319.5 A 35.5 35.5 0 0 1  497 284 L 461.5 319.5 A 35.5 35.5 0 0 0 497 284" fill="#0c6171"/><rect x="426" y="319.5" width="35.5" height="35.5" fill="#0d3b55"/><path d="M 426 355 A 35.5 35.5 0 0 0 461.5 319.5 L 426 319.5" fill="#0d3d57"/><rect x="461.5" y="319.5" width="35.5" height="35.5" fill="#0a9092"/><path d="M 461.5 319.5 A 35.5 35.5 0 0 1 497 355 L 461.5 355" fill="#0d3551"/><rect x="497" y="284" width="71" height="71" fill="#0c6573"/><path d="M 497 355 A 71 71 0 0 1  568 284 L 568 355" fill="#0b737d"/><rect x="568" y="284" width="71" height="71" fill="#0c5d6d"/><path d="M 568 355 A 71 71 0 0 1  639 284 L 568 355 A 71 71 0 0 0 639 284" fill="#0b6775"/><rect x="639" y="284" width="71" height="71" fill="#0c586a"/><path d="M 639 355 A 71 71 0 0 1  710 284 L 639 355 A 71 71 0 0 0 710 284" fill="#0a8f92"/><rect x="710" y="284" width="71" height="71" fill="#0d3d57"/><path d="M 710 284 A 71 71 0 0 0 781 355 L 781 284" fill="#0d3954"/><rect x="781" y="284" width="71" height="71" fill="#0a8c8f"/><path d="M 781 284 A 71 71 0 0 0 852 355 L 852 284" fill="#0b858a"/><rect x="852" y="284" width="71" height="71" fill="#0d3450"/><rect x="852" y="284" width="35.5" height="35.5" fill="#0c4b60"/><path d="M 852 284 A 35.5 35.5 0 0 1 887.5 319.5 L 852 319.5" fill="#0d3853"/><rect x="887.5" y="284" width="35.5" height="35.5" fill="#0d3450"/><path d="M 887.5 284 A 35.5 35.5 0 0 0 923 319.5 L 923 284" fill="#0c6473"/><rect x="852" y="319.5" width="35.5" height="35.5" fill="#0d3f58"/><path d="M 852 319.5 A 35.5 35.5 0 0 1  887.5 355 L 852 319.5 A 35.5 35.5 0 0 0 887.5 355" fill="#0c5568"/><rect x="887.5" y="319.5" width="35.5" height="35.5" fill="#0b6976"/><path d="M 887.5 355 A 35.5 35.5 0 0 0 923 319.5 L 887.5 319.5" fill="#0b7e85"/><rect x="923" y="284" width="71" height="71" fill="#0d3450"/><rect x="923" y="284" width="35.5" height="35.5" fill="#0c5769"/><path d="M 923 319.5 A 35.5 35.5 0 0 1  958.5 284 L 958.5 319.5" fill="#0b707b"/><rect x="958.5" y="284" width="35.5" height="35.5" fill="#0a8e91"/><path d="M 958.5 319.5 A 35.5 35.5 0 0 1  994 284 L 958.5 319.5 A 35.5 35.5 0 0 0 994 284" fill="#0c455c"/><rect x="923" y="319.5" width="35.5" height="35.5" fill="#0a8e91"/><path d="M 923 355 A 35.5 35.5 0 0 1  958.5 319.5 L 958.5 355" fill="#0b6f7b"/><rect x="958.5" y="319.5" width="35.5" height="35.5" fill="#0c4f63"/><path d="M 958.5 355 A 35.5 35.5 0 0 0 994 319.5 L 958.5 319.5" fill="#0c495f"/><rect x="994" y="284" width="71" height="71" fill="#0c5c6c"/><path d="M 994 284 A 71 71 0 0 1 1065 355 L 994 355" fill="#0c5064"/><rect x="1065" y="284" width="71" height="71" fill="#0b7f86"/><path d="M 1065 284 A 71 71 0 0 0 1136 355 L 1136 284" fill="#0d3551"/><rect x="0" y="355" width="71" height="71" fill="#0d3450"/><rect x="0" y="355" width="35.5" height="35.5" fill="#0c4d62"/><path d="M 0 390.5 A 35.5 35.5 0 0 0 35.5 355 L 0 355" fill="#0b7e85"/><rect x="35.5" y="355" width="35.5" height="35.5" fill="#0c6574"/><path d="M 35.5 390.5 A 35.5 35.5 0 0 0 71 355 L 35.5 355" fill="#0b6976"/><rect x="0" y="390.5" width="35.5" height="35.5" fill="#0a8b8e"/><path d="M 0 390.5 A 35.5 35.5 0 0 1  35.5 426 L 0 390.5 A 35.5 35.5 0 0 0 35.5 426" fill="#0b6674"/><rect x="35.5" y="390.5" width="35.5" height="35.5" fill="#0c586a"/><path d="M 35.5 390.5 A 35.5 35.5 0 0 1  71 426 L 35.5 390.5 A 35.5 35.5 0 0 0 71 426" fill="#0b6a77"/><rect x="71" y="355" width="71" height="71" fill="#0a9495"/><path d="M 71 426 A 71 71 0 0 1  142 355 L 142 426" fill="#0b7f86"/><rect x="142" y="355" width="71" height="71" fill="#0b6775"/><path d="M 142 426 A 71 71 0 0 1  213 355 L 213 426" fill="#0c586a"/><rect x="213" y="355" width="71" height="71" fill="#0d3d57"/><path d="M 213 426 A 71 71 0 0 1  284 355 L 213 426 A 71 71 0 0 0 284 355" fill="#0a9294"/><rect x="284" y="355" width="71" height="71" fill="#0d3450"/><rect x="284" y="355" width="35.5" height="35.5" fill="#0b7982"/><path d="M 284 355 A 35.5 35.5 0 0 1 319.5 390.5 L 284 390.5" fill="#0c4e63"/><rect x="319.5" y="355" width="35.5" height="35.5" fill="#0d3b55"/><path d="M 319.5 390.5 A 35.5 35.5 0 0 0 355 355 L 319.5 355" fill="#0a9898"/><rect x="284" y="390.5" width="35.5" height="35.5" fill="#0d445c"/><path d="M 284 426 A 35.5 35.5 0 0 0 319.5 390.5 L 284 390.5" fill="#0b7d84"/><rect x="319.5" y="390.5" width="35.5" height="35.5" fill="#0b6775"/><path d="M 319.5 390.5 A 35.5 35.5 0 0 1  355 426 L 319.5 390.5 A 35.5 35.5 0 0 0 355 426" fill="#0a8c8f"/><rect x="355" y="355" width="71" height="71" fill="#0d3450"/><rect x="355" y="355" width="35.5" height="35.5" fill="#0a898d"/><path d="M 355 355 A 35.5 35.5 0 0 0 390.5 390.5 L 390.5 355" fill="#0d3953"/><rect x="390.5" y="355" width="35.5" height="35.5" fill="#0c4c61"/><path d="M 390.5 390.5 A 35.5 35.5 0 0 1  426 355 L 426 390.5" fill="#0b6b78"/><rect x="355" y="390.5" width="35.5" height="35.5" fill="#0c4c61"/><path d="M 355 390.5 A 35.5 35.5 0 0 0 390.5 426 L 390.5 390.5" fill="#0d3752"/><rect x="390.5" y="390.5" width="35.5" height="35.5" fill="#0b8389"/><path d="M 390.5 390.5 A 35.5 35.5 0 0 1  426 426 L 390.5 390.5 A 35.5 35.5 0 0 0 426 426" fill="#0b6b78"/><rect x="426" y="355" width="71" height="71" fill="#0c6674"/><path d="M 426 355 A 71 71 0 0 1 497 426 L 426 426" fill="#0b8188"/><rect x="497" y="355" width="71" height="71" fill="#0d3c56"/><path d="M 497 355 A 71 71 0 0 0 568 426 L 568 355" fill="#0b7d85"/><rect x="568" y="355" width="71" height="71" fill="#0d3450"/><rect x="568" y="355" width="35.5" height="35.5" fill="#0b7780"/><path d="M 568 355 A 35.5 35.5 0 0 0 603.5 390.5 L 603.5 355" fill="#0c6372"/><rect x="603.5" y="355" width="35.5" height="35.5" fill="#0b707b"/><path d="M 603.5 355 A 35.5 35.5 0 0 0 639 390.5 L 639 355" fill="#0b737d"/><rect x="568" y="390.5" width="35.5" height="35.5" fill="#0c6674"/><path d="M 568 426 A 35.5 35.5 0 0 1  603.5 390.5 L 603.5 426" fill="#0c6472"/><rect x="603.5" y="390.5" width="35.5" height="35.5" fill="#0b7b83"/><path d="M 603.5 390.5 A 35.5 35.5 0 0 0 639 426 L 639 390.5" fill="#0c5769"/><rect x="639" y="355" width="71" height="71" fill="#0c5769"/><path d="M 639 426 A 71 71 0 0 0 710 355 L 639 355" fill="#0b7c84"/><rect x="710" y="355" width="71" height="71" fill="#0b747e"/><path d="M 710 355 A 71 71 0 0 1  781 426 L 710 355 A 71 71 0 0 0 781 426" fill="#0b6976"/><rect x="781" y="355" width="71" height="71" fill="#0d3450"/><rect x="781" y="355" width="35.5" height="35.5" fill="#0b7a83"/><path d="M 781 390.5 A 35.5 35.5 0 0 1  816.5 355 L 781 390.5 A 35.5 35.5 0 0 0 816.5 355" fill="#0b6f7a"/><rect x="816.5" y="355" width="35.5" height="35.5" fill="#0d415a"/><path d="M 816.5 390.5 A 35.5 35.5 0 0 0 852 355 L 816.5 355" fill="#0a9495"/><rect x="781" y="390.5" width="35.5" height="35.5" fill="#0b6875"/><path d="M 781 426 A 35.5 35.5 0 0 1  816.5 390.5 L 816.5 426" fill="#0b737d"/><rect x="816.5" y="390.5" width="35.5" height="35.5" fill="#0b868b"/><path d="M 816.5 390.5 A 35.5 35.5 0 0 1 852 426 L 816.5 426" fill="#0b707c"/><rect x="852" y="355" width="71" height="71" fill="#0d3450"/><rect x="852" y="355" width="35.5" height="35.5" fill="#0c485e"/><path d="M 852 355 A 35.5 35.5 0 0 0 887.5 390.5 L 887.5 355" fill="#0a9294"/><rect x="887.5" y="355" width="35.5" height="35.5" fill="#0c6674"/><path d="M 887.5 390.5 A 35.5 35.5 0 0 1  923 355 L 887.5 390.5 A 35.5 35.5 0 0 0 923 355" fill="#0b717c"/><rect x="852" y="390.5" width="35.5" height="35.5" fill="#0b7780"/><path d="M 852 390.5 A 35.5 35.5 0 0 0 887.5 426 L 887.5 390.5" fill="#0a8a8e"/><rect x="887.5" y="390.5" width="35.5" height="35.5" fill="#0d3853"/><path d="M 887.5 426 A 35.5 35.5 0 0 1  923 390.5 L 923 426" fill="#0b6e7a"/><rect x="923" y="355" width="71" height="71" fill="#0d3a55"/><path d="M 923 426 A 71 71 0 0 1  994 355 L 923 426 A 71 71 0 0 0 994 355" fill="#0b6e7a"/><rect x="994" y="355" width="71" height="71" fill="#0d3a55"/><path d="M 994 426 A 71 71 0 0 0 1065 355 L 994 355" fill="#0c5c6d"/><rect x="1065" y="355" width="71" height="71" fill="#0d3450"/><rect x="1065" y="355" width="35.5" height="35.5" fill="#0c4c61"/><path d="M 1065 390.5 A 35.5 35.5 0 0 0 1100.5 355 L 1065 355" fill="#0c5165"/><rect x="1100.5" y="355" width="35.5" height="35.5" fill="#0b6976"/><path d="M 1100.5 390.5 A 35.5 35.5 0 0 1  1136 355 L 1100.5 390.5 A 35.5 35.5 0 0 0 1136 355" fill="#0b848a"/><rect x="1065" y="390.5" width="35.5" height="35.5" fill="#0b7780"/><path d="M 1065 426 A 35.5 35.5 0 0 0 1100.5 390.5 L 1065 390.5" fill="#0b6d79"/><rect x="1100.5" y="390.5" width="35.5" height="35.5" fill="#0b6c79"/><path d="M 1100.5 426 A 35.5 35.5 0 0 0 1136 390.5 L 1100.5 390.5" fill="#0c5769"/><rect x="0" y="426" width="71" height="71" fill="#0b868b"/><path d="M 0 426 A 71 71 0 0 1 71 497 L 0 497" fill="#0c5c6c"/><rect x="71" y="426" width="71" height="71" fill="#0d3450"/><rect x="71" y="426" width="35.5" height="35.5" fill="#0c5366"/><path d="M 71 461.5 A 35.5 35.5 0 0 1  106.5 426 L 71 461.5 A 35.5 35.5 0 0 0 106.5 426" fill="#0a8a8e"/><rect x="106.5" y="426" width="35.5" height="35.5" fill="#0b737d"/><path d="M 106.5 426 A 35.5 35.5 0 0 1  142 461.5 L 106.5 426 A 35.5 35.5 0 0 0 142 461.5" fill="#0d435b"/><rect x="71" y="461.5" width="35.5" height="35.5" fill="#0b7982"/><path d="M 71 461.5 A 35.5 35.5 0 0 1  106.5 497 L 71 461.5 A 35.5 35.5 0 0 0 106.5 497" fill="#0b8086"/><rect x="106.5" y="461.5" width="35.5" height="35.5" fill="#0a8f91"/><path d="M 106.5 461.5 A 35.5 35.5 0 0 0 142 497 L 142 461.5" fill="#0d445c"/><rect x="142" y="426" width="71" height="71" fill="#0b6f7a"/><path d="M 142 497 A 71 71 0 0 1  213 426 L 142 497 A 71 71 0 0 0 213 426" fill="#0b7a82"/><rect x="213" y="426" width="71" height="71" fill="#0d3450"/><rect x="213" y="426" width="35.5" height="35.5" fill="#0a8d90"/><path d="M 213 461.5 A 35.5 35.5 0 0 1  248.5 426 L 213 461.5 A 35.5 35.5 0 0 0 248.5 426" fill="#0a8f92"/><rect x="248.5" y="426" width="35.5" height="35.5" fill="#0a898d"/><path d="M 248.5 461.5 A 35.5 35.5 0 0 1  284 426 L 284 461.5" fill="#0d3551"/><rect x="213" y="461.5" width="35.5" height="35.5" fill="#0b6d79"/><path d="M 213 497 A 35.5 35.5 0 0 1  248.5 461.5 L 213 497 A 35.5 35.5 0 0 0 248.5 461.5" fill="#0c586a"/><rect x="248.5" y="461.5" width="35.5" height="35.5" fill="#0a9797"/><path d="M 248.5 461.5 A 35.5 35.5 0 0 1  284 497 L 248.5 461.5 A 35.5 35.5 0 0 0 284 497" fill="#0c5064"/><rect x="284" y="426" width="71" height="71" fill="#0b7e85"/><path d="M 284 497 A 71 71 0 0 1  355 426 L 355 497" fill="#0b8389"/><rect x="355" y="426" width="71" height="71" fill="#0b747e"/><path d="M 355 497 A 71 71 0 0 1  426 426 L 355 497 A 71 71 0 0 0 426 426" fill="#0b878c"/><rect x="426" y="426" width="71" height="71" fill="#0a9495"/><path d="M 426 497 A 71 71 0 0 1  497 426 L 497 497" fill="#0c455d"/><rect x="497" y="426" width="71" height="71" fill="#0d425a"/><path d="M 497 426 A 71 71 0 0 1 568 497 L 497 497" fill="#0c5769"/><rect x="568" y="426" width="71" height="71" fill="#0c5568"/><path d="M 568 426 A 71 71 0 0 0 639 497 L 639 426" fill="#0b7e85"/><rect x="639" y="426" width="71" height="71" fill="#0b717c"/><path d="M 639 426 A 71 71 0 0 1  710 497 L 639 426 A 71 71 0 0 0 710 497" fill="#0b7781"/><rect x="710" y="426" width="71" height="71" fill="#0d3450"/><rect x="710" y="426" width="35.5" height="35.5" fill="#0b6a77"/><path d="M 710 426 A 35.5 35.5 0 0 1 745.5 461.5 L 710 461.5" fill="#0a8d90"/><rect x="745.5" y="426" width="35.5" height="35.5" fill="#0b7e86"/><path d="M 745.5 461.5 A 35.5 35.5 0 0 1  781 426 L 781 461.5" fill="#0b727d"/><rect x="710" y="461.5" width="35.5" height="35.5" fill="#0a9697"/><path d="M 710 461.5 A 35.5 35.5 0 0 1  745.5 497 L 710 461.5 A 35.5 35.5 0 0 0 745.5 497" fill="#0a8f91"/><rect x="745.5" y="461.5" width="35.5" height="35.5" fill="#0d3a54"/><path d="M 745.5 497 A 35.5 35.5 0 0 1  781 461.5 L 781 497" fill="#0c5d6d"/><rect x="781" y="426" width="71" height="71" fill="#0d3450"/><rect x="781" y="426" width="35.5" height="35.5" fill="#0c6674"/><path d="M 781 461.5 A 35.5 35.5 0 0 1  816.5 426 L 816.5 461.5" fill="#0a898d"/><rect x="816.5" y="426" width="35.5" height="35.5" fill="#0a888d"/><path d="M 816.5 461.5 A 35.5 35.5 0 0 1  852 426 L 816.5 461.5 A 35.5 35.5 0 0 0 852 426" fill="#0d3a55"/><rect x="781" y="461.5" width="35.5" height="35.5" fill="#0b8288"/><path d="M 781 461.5 A 35.5 35.5 0 0 1  816.5 497 L 781 461.5 A 35.5 35.5 0 0 0 816.5 497" fill="#0b6b78"/><rect x="816.5" y="461.5" width="35.5" height="35.5" fill="#0c5f6f"/><path d="M 816.5 497 A 35.5 35.5 0 0 1  852 461.5 L 852 497" fill="#0b7780"/><rect x="852" y="426" width="71" height="71" fill="#0d3450"/><rect x="852" y="426" width="35.5" height="35.5" fill="#0c5266"/><path d="M 852 426 A 35.5 35.5 0 0 1 887.5 461.5 L 852 461.5" fill="#0b868b"/><rect x="887.5" y="426" width="35.5" height="35.5" fill="#0c5f6f"/><path d="M 887.5 426 A 35.5 35.5 0 0 0 923 461.5 L 923 426" fill="#0b717c"/><rect x="852" y="461.5" width="35.5" height="35.5" fill="#0b7e86"/><path d="M 852 461.5 A 35.5 35.5 0 0 1  887.5 497 L 852 461.5 A 35.5 35.5 0 0 0 887.5 497" fill="#0a9495"/><rect x="887.5" y="461.5" width="35.5" height="35.5" fill="#0c495f"/><path d="M 887.5 497 A 35.5 35.5 0 0 1  923 461.5 L 923 497" fill="#0c6070"/><rect x="923" y="426" width="71" height="71" fill="#0b7d84"/><path d="M 923 497 A 71 71 0 0 1  994 426 L 923 497 A 71 71 0 0 0 994 426" fill="#0b8086"/><rect x="994" y="426" width="71" height="71" fill="#0b6875"/><path d="M 994 426 A 71 71 0 0 1  1065 497 L 994 426 A 71 71 0 0 0 1065 497" fill="#0c5769"/><rect x="1065" y="426" width="71" height="71" fill="#0a8f92"/><path d="M 1065 426 A 71 71 0 0 0 1136 497 L 1136 426" fill="#0b747e"/><rect x="0" y="497" width="71" height="71" fill="#0d3450"/><rect x="0" y="497" width="35.5" height="35.5" fill="#0a898d"/><path d="M 0 497 A 35.5 35.5 0 0 1  35.5 532.5 L 0 497 A 35.5 35.5 0 0 0 35.5 532.5" fill="#0c5467"/><rect x="35.5" y="497" width="35.5" height="35.5" fill="#0c6573"/><path d="M 35.5 532.5 A 35.5 35.5 0 0 1  71 497 L 35.5 532.5 A 35.5 35.5 0 0 0 71 497" fill="#0b7680"/><rect x="0" y="532.5" width="35.5" height="35.5" fill="#0d3752"/><path d="M 0 532.5 A 35.5 35.5 0 0 0 35.5 568 L 35.5 532.5" fill="#0b6876"/><rect x="35.5" y="532.5" width="35.5" height="35.5" fill="#0d435b"/><path d="M 35.5 568 A 35.5 35.5 0 0 1  71 532.5 L 35.5 568 A 35.5 35.5 0 0 0 71 532.5" fill="#0b858a"/><rect x="71" y="497" width="71" height="71" fill="#0c485e"/><path d="M 71 568 A 71 71 0 0 0 142 497 L 71 497" fill="#0c5567"/><rect x="142" y="497" width="71" height="71" fill="#0d4058"/><path d="M 142 568 A 71 71 0 0 1  213 497 L 213 568" fill="#0b8188"/><rect x="213" y="497" width="71" height="71" fill="#0b6976"/><path d="M 213 497 A 71 71 0 0 0 284 568 L 284 497" fill="#0d4159"/><rect x="284" y="497" width="71" height="71" fill="#0d3450"/><rect x="284" y="497" width="35.5" height="35.5" fill="#0c6573"/><path d="M 284 532.5 A 35.5 35.5 0 0 1  319.5 497 L 284 532.5 A 35.5 35.5 0 0 0 319.5 497" fill="#0b7c84"/><rect x="319.5" y="497" width="35.5" height="35.5" fill="#0b858b"/><path d="M 319.5 532.5 A 35.5 35.5 0 0 0 355 497 L 319.5 497" fill="#0b7d84"/><rect x="284" y="532.5" width="35.5" height="35.5" fill="#0c586a"/><path d="M 284 532.5 A 35.5 35.5 0 0 0 319.5 568 L 319.5 532.5" fill="#0c6473"/><rect x="319.5" y="532.5" width="35.5" height="35.5" fill="#0c6674"/><path d="M 319.5 568 A 35.5 35.5 0 0 1  355 532.5 L 319.5 568 A 35.5 35.5 0 0 0 355 532.5" fill="#0b757f"/><rect x="355" y="497" width="71" height="71" fill="#0d3450"/><rect x="355" y="497" width="35.5" height="35.5" fill="#0a9697"/><path d="M 355 532.5 A 35.5 35.5 0 0 1  390.5 497 L 355 532.5 A 35.5 35.5 0 0 0 390.5 497" fill="#0a8e91"/><rect x="390.5" y="497" width="35.5" height="35.5" fill="#0a9898"/><path d="M 390.5 532.5 A 35.5 35.5 0 0 1  426 497 L 426 532.5" fill="#0c455c"/><rect x="355" y="532.5" width="35.5" height="35.5" fill="#0d3a54"/><path d="M 355 568 A 35.5 35.5 0 0 1  390.5 532.5 L 355 568 A 35.5 35.5 0 0 0 390.5 532.5" fill="#0b737d"/><rect x="390.5" y="532.5" width="35.5" height="35.5" fill="#0b6d79"/><path d="M 390.5 568 A 35.5 35.5 0 0 1  426 532.5 L 390.5 568 A 35.5 35.5 0 0 0 426 532.5" fill="#0c5165"/><rect x="426" y="497" width="71" height="71" fill="#0d3450"/><rect x="426" y="497" width="35.5" height="35.5" fill="#0d3c56"/><path d="M 426 532.5 A 35.5 35.5 0 0 1  461.5 497 L 426 532.5 A 35.5 35.5 0 0 0 461.5 497" fill="#0d3652"/><rect x="461.5" y="497" width="35.5" height="35.5" fill="#0c5266"/><path d="M 461.5 497 A 35.5 35.5 0 0 1 497 532.5 L 461.5 532.5" fill="#0c5265"/><rect x="426" y="532.5" width="35.5" height="35.5" fill="#0b7680"/><path d="M 426 568 A 35.5 35.5 0 0 1  461.5 532.5 L 426 568 A 35.5 35.5 0 0 0 461.5 532.5" fill="#0c6472"/><rect x="461.5" y="532.5" width="35.5" height="35.5" fill="#0b6a77"/><path d="M 461.5 532.5 A 35.5 35.5 0 0 0 497 568 L 497 532.5" fill="#0c5064"/><rect x="497" y="497" width="71" height="71" fill="#0d3450"/><rect x="497" y="497" width="35.5" height="35.5" fill="#0b6775"/><path d="M 497 532.5 A 35.5 35.5 0 0 1  532.5 497 L 532.5 532.5" fill="#0b7e85"/><rect x="532.5" y="497" width="35.5" height="35.5" fill="#0d435b"/><path d="M 532.5 532.5 A 35.5 35.5 0 0 0 568 497 L 532.5 497" fill="#0b717c"/><rect x="497" y="532.5" width="35.5" height="35.5" fill="#0d415a"/><path d="M 497 532.5 A 35.5 35.5 0 0 1  532.5 568 L 497 532.5 A 35.5 35.5 0 0 0 532.5 568" fill="#0c5e6e"/><rect x="532.5" y="532.5" width="35.5" height="35.5" fill="#0c5769"/><path d="M 532.5 532.5 A 35.5 35.5 0 0 1 568 568 L 532.5 568" fill="#0b7a83"/><rect x="568" y="497" width="71" height="71" fill="#0b7e85"/><path d="M 568 568 A 71 71 0 0 1  639 497 L 639 568" fill="#0c5367"/><rect x="639" y="497" width="71" height="71" fill="#0d3651"/><path d="M 639 497 A 71 71 0 0 1 710 568 L 639 568" fill="#0a8e91"/><rect x="710" y="497" width="71" height="71" fill="#0d3450"/><rect x="710" y="497" width="35.5" height="35.5" fill="#0a9395"/><path d="M 710 532.5 A 35.5 35.5 0 0 1  745.5 497 L 745.5 532.5" fill="#0a8e91"/><rect x="745.5" y="497" width="35.5" height="35.5" fill="#0a8c8f"/><path d="M 745.5 497 A 35.5 35.5 0 0 1 781 532.5 L 745.5 532.5" fill="#0b7a83"/><rect x="710" y="532.5" width="35.5" height="35.5" fill="#0a9697"/><path d="M 710 568 A 35.5 35.5 0 0 1  745.5 532.5 L 710 568 A 35.5 35.5 0 0 0 745.5 532.5" fill="#0c6472"/><rect x="745.5" y="532.5" width="35.5" height="35.5" fill="#0c5467"/><path d="M 745.5 568 A 35.5 35.5 0 0 0 781 532.5 L 745.5 532.5" fill="#0b848a"/><rect x="781" y="497" width="71" height="71" fill="#0b6b77"/><path d="M 781 497 A 71 71 0 0 1 852 568 L 781 568" fill="#0a8e91"/><rect x="852" y="497" width="71" height="71" fill="#0c455c"/><path d="M 852 568 A 71 71 0 0 1  923 497 L 923 568" fill="#0c6170"/><rect x="923" y="497" width="71" height="71" fill="#0d3450"/><rect x="923" y="497" width="35.5" height="35.5" fill="#0b7c84"/><path d="M 923 532.5 A 35.5 35.5 0 0 1  958.5 497 L 958.5 532.5" fill="#0c6674"/><rect x="958.5" y="497" width="35.5" height="35.5" fill="#0c5568"/><path d="M 958.5 497 A 35.5 35.5 0 0 0 994 532.5 L 994 497" fill="#0c4f64"/><rect x="923" y="532.5" width="35.5" height="35.5" fill="#0d3e57"/><path d="M 923 532.5 A 35.5 35.5 0 0 0 958.5 568 L 958.5 532.5" fill="#0a9092"/><rect x="958.5" y="532.5" width="35.5" height="35.5" fill="#0d3651"/><path d="M 958.5 568 A 35.5 35.5 0 0 1  994 532.5 L 994 568" fill="#0b7b83"/><rect x="994" y="497" width="71" height="71" fill="#0d3450"/><rect x="994" y="497" width="35.5" height="35.5" fill="#0d3551"/><path d="M 994 532.5 A 35.5 35.5 0 0 1  1029.5 497 L 1029.5 532.5" fill="#0c5668"/><rect x="1029.5" y="497" width="35.5" height="35.5" fill="#0c6472"/><path d="M 1029.5 532.5 A 35.5 35.5 0 0 0 1065 497 L 1029.5 497" fill="#0b6875"/><rect x="994" y="532.5" width="35.5" height="35.5" fill="#0c5467"/><path d="M 994 532.5 A 35.5 35.5 0 0 0 1029.5 568 L 1029.5 532.5" fill="#0b6775"/><rect x="1029.5" y="532.5" width="35.5" height="35.5" fill="#0b6e7a"/><path d="M 1029.5 532.5 A 35.5 35.5 0 0 1 1065 568 L 1029.5 568" fill="#0c4d62"/><rect x="1065" y="497" width="71" height="71" fill="#0a9293"/><path d="M 1065 568 A 71 71 0 0 0 1136 497 L 1065 497" fill="#0a898d"/><rect x="0" y="568" width="71" height="71" fill="#0d3450"/><rect x="0" y="568" width="35.5" height="35.5" fill="#0b7d85"/><path d="M 0 603.5 A 35.5 35.5 0 0 0 35.5 568 L 0 568" fill="#0d3f58"/><rect x="35.5" y="568" width="35.5" height="35.5" fill="#0c465d"/><path d="M 35.5 603.5 A 35.5 35.5 0 0 1  71 568 L 71 603.5" fill="#0a8d90"/><rect x="0" y="603.5" width="35.5" height="35.5" fill="#0a898d"/><path d="M 0 603.5 A 35.5 35.5 0 0 1 35.5 639 L 0 639" fill="#0b6b78"/><rect x="35.5" y="603.5" width="35.5" height="35.5" fill="#0c5769"/><path d="M 35.5 603.5 A 35.5 35.5 0 0 0 71 639 L 71 603.5" fill="#0c6372"/><rect x="71" y="568" width="71" height="71" fill="#0d3e57"/><path d="M 71 639 A 71 71 0 0 0 142 568 L 71 568" fill="#0c6070"/><rect x="142" y="568" width="71" height="71" fill="#0d445b"/><path d="M 142 639 A 71 71 0 0 1  213 568 L 142 639 A 71 71 0 0 0 213 568" fill="#0b767f"/><rect x="213" y="568" width="71" height="71" fill="#0d3450"/><rect x="213" y="568" width="35.5" height="35.5" fill="#0b6875"/><path d="M 213 603.5 A 35.5 35.5 0 0 0 248.5 568 L 213 568" fill="#0b858a"/><rect x="248.5" y="568" width="35.5" height="35.5" fill="#0c6070"/><path d="M 248.5 603.5 A 35.5 35.5 0 0 1  284 568 L 248.5 603.5 A 35.5 35.5 0 0 0 284 568" fill="#0a9193"/><rect x="213" y="603.5" width="35.5" height="35.5" fill="#0b878b"/><path d="M 213 639 A 35.5 35.5 0 0 1  248.5 603.5 L 248.5 639" fill="#0b7780"/><rect x="248.5" y="603.5" width="35.5" height="35.5" fill="#0c5e6e"/><path d="M 248.5 603.5 A 35.5 35.5 0 0 1  284 639 L 248.5 603.5 A 35.5 35.5 0 0 0 284 639" fill="#0c6271"/><rect x="284" y="568" width="71" height="71" fill="#0b848a"/><path d="M 284 639 A 71 71 0 0 0 355 568 L 284 568" fill="#0c5266"/><rect x="355" y="568" width="71" height="71" fill="#0b7781"/><path d="M 355 568 A 71 71 0 0 0 426 639 L 426 568" fill="#0b7c84"/><rect x="426" y="568" width="71" height="71" fill="#0d3450"/><rect x="426" y="568" width="35.5" height="35.5" fill="#0c4b61"/><path d="M 426 568 A 35.5 35.5 0 0 1 461.5 603.5 L 426 603.5" fill="#0b7a83"/><rect x="461.5" y="568" width="35.5" height="35.5" fill="#0b858a"/><path d="M 461.5 568 A 35.5 35.5 0 0 1 497 603.5 L 461.5 603.5" fill="#0b6775"/><rect x="426" y="603.5" width="35.5" height="35.5" fill="#0b747e"/><path d="M 426 639 A 35.5 35.5 0 0 1  461.5 603.5 L 426 639 A 35.5 35.5 0 0 0 461.5 603.5" fill="#0c5769"/><rect x="461.5" y="603.5" width="35.5" height="35.5" fill="#0c4a60"/><path d="M 461.5 603.5 A 35.5 35.5 0 0 1 497 639 L 461.5 639" fill="#0a9697"/><rect x="497" y="568" width="71" height="71" fill="#0d3450"/><rect x="497" y="568" width="35.5" height="35.5" fill="#0b747e"/><path d="M 497 603.5 A 35.5 35.5 0 0 1  532.5 568 L 532.5 603.5" fill="#0c5c6d"/><rect x="532.5" y="568" width="35.5" height="35.5" fill="#0c5467"/><path d="M 532.5 603.5 A 35.5 35.5 0 0 1  568 568 L 568 603.5" fill="#0d3f58"/><rect x="497" y="603.5" width="35.5" height="35.5" fill="#0c5e6e"/><path d="M 497 603.5 A 35.5 35.5 0 0 1  532.5 639 L 497 603.5 A 35.5 35.5 0 0 0 532.5 639" fill="#0c6170"/><rect x="532.5" y="603.5" width="35.5" height="35.5" fill="#0a8d90"/><path d="M 532.5 603.5 A 35.5 35.5 0 0 1  568 639 L 532.5 603.5 A 35.5 35.5 0 0 0 568 639" fill="#0d3752"/><rect x="568" y="568" width="71" height="71" fill="#0b6e7a"/><path d="M 568 568 A 71 71 0 0 1 639 639 L 568 639" fill="#0c6271"/><rect x="639" y="568" width="71" height="71" fill="#0d3450"/><rect x="639" y="568" width="35.5" height="35.5" fill="#0c5f6f"/><path d="M 639 603.5 A 35.5 35.5 0 0 0 674.5 568 L 639 568" fill="#0a9697"/><rect x="674.5" y="568" width="35.5" height="35.5" fill="#0d3b55"/><path d="M 674.5 568 A 35.5 35.5 0 0 1  710 603.5 L 674.5 568 A 35.5 35.5 0 0 0 710 603.5" fill="#0b7981"/><rect x="639" y="603.5" width="35.5" height="35.5" fill="#0c495f"/><path d="M 639 639 A 35.5 35.5 0 0 1  674.5 603.5 L 639 639 A 35.5 35.5 0 0 0 674.5 603.5" fill="#0c5769"/><rect x="674.5" y="603.5" width="35.5" height="35.5" fill="#0b8389"/><path d="M 674.5 639 A 35.5 35.5 0 0 1  710 603.5 L 710 639" fill="#0a9797"/><rect x="710" y="568" width="71" height="71" fill="#0b6b78"/><path d="M 710 639 A 71 71 0 0 1  781 568 L 781 639" fill="#0b7a82"/><rect x="781" y="568" width="71" height="71" fill="#0d3450"/><rect x="781" y="568" width="35.5" height="35.5" fill="#0c6070"/><path d="M 781 603.5 A 35.5 35.5 0 0 1  816.5 568 L 816.5 603.5" fill="#0a9394"/><rect x="816.5" y="568" width="35.5" height="35.5" fill="#0a9697"/><path d="M 816.5 568 A 35.5 35.5 0 0 1 852 603.5 L 816.5 603.5" fill="#0c6170"/><rect x="781" y="603.5" width="35.5" height="35.5" fill="#0b868b"/><path d="M 781 639 A 35.5 35.5 0 0 1  816.5 603.5 L 781 639 A 35.5 35.5 0 0 0 816.5 603.5" fill="#0b717c"/><rect x="816.5" y="603.5" width="35.5" height="35.5" fill="#0a9495"/><path d="M 816.5 603.5 A 35.5 35.5 0 0 1  852 639 L 816.5 603.5 A 35.5 35.5 0 0 0 852 639" fill="#0c5c6d"/><rect x="852" y="568" width="71" height="71" fill="#0d3450"/><rect x="852" y="568" width="35.5" height="35.5" fill="#0c5568"/><path d="M 852 603.5 A 35.5 35.5 0 0 1  887.5 568 L 852 603.5 A 35.5 35.5 0 0 0 887.5 568" fill="#0a898d"/><rect x="887.5" y="568" width="35.5" height="35.5" fill="#0b717c"/><path d="M 887.5 603.5 A 35.5 35.5 0 0 0 923 568 L 887.5 568" fill="#0c495f"/><rect x="852" y="603.5" width="35.5" height="35.5" fill="#0d445b"/><path d="M 852 639 A 35.5 35.5 0 0 1  887.5 603.5 L 887.5 639" fill="#0b6b77"/><rect x="887.5" y="603.5" width="35.5" height="35.5" fill="#0a8a8e"/><path d="M 887.5 603.5 A 35.5 35.5 0 0 0 923 639 L 923 603.5" fill="#0b7680"/><rect x="923" y="568" width="71" height="71" fill="#0d3450"/><rect x="923" y="568" width="35.5" height="35.5" fill="#0b7f86"/><path d="M 923 568 A 35.5 35.5 0 0 1 958.5 603.5 L 923 603.5" fill="#0d3f58"/><rect x="958.5" y="568" width="35.5" height="35.5" fill="#0a9797"/><path d="M 958.5 603.5 A 35.5 35.5 0 0 0 994 568 L 958.5 568" fill="#0a9092"/><rect x="923" y="603.5" width="35.5" height="35.5" fill="#0a9697"/><path d="M 923 639 A 35.5 35.5 0 0 0 958.5 603.5 L 923 603.5" fill="#0b878c"/><rect x="958.5" y="603.5" width="35.5" height="35.5" fill="#0d3a54"/><path d="M 958.5 603.5 A 35.5 35.5 0 0 1 994 639 L 958.5 639" fill="#0a9596"/><rect x="994" y="568" width="71" height="71" fill="#0d3450"/><rect x="994" y="568" width="35.5" height="35.5" fill="#0b8289"/><path d="M 994 568 A 35.5 35.5 0 0 0 1029.5 603.5 L 1029.5 568" fill="#0a9294"/><rect x="1029.5" y="568" width="35.5" height="35.5" fill="#0b737e"/><path d="M 1029.5 568 A 35.5 35.5 0 0 0 1065 603.5 L 1065 568" fill="#0b737d"/><rect x="994" y="603.5" width="35.5" height="35.5" fill="#0c5165"/><path d="M 994 639 A 35.5 35.5 0 0 0 1029.5 603.5 L 994 603.5" fill="#0c455c"/><rect x="1029.5" y="603.5" width="35.5" height="35.5" fill="#0c465d"/><path d="M 1029.5 639 A 35.5 35.5 0 0 1  1065 603.5 L 1065 639" fill="#0b6f7a"/><rect x="1065" y="568" width="71" height="71" fill="#0d3450"/><rect x="1065" y="568" width="35.5" height="35.5" fill="#0b6a77"/><path d="M 1065 603.5 A 35.5 35.5 0 0 0 1100.5 568 L 1065 568" fill="#0a9394"/><rect x="1100.5" y="568" width="35.5" height="35.5" fill="#0b717c"/><path d="M 1100.5 603.5 A 35.5 35.5 0 0 1  1136 568 L 1136 603.5" fill="#0b858b"/><rect x="1065" y="603.5" width="35.5" height="35.5" fill="#0c5064"/><path d="M 1065 639 A 35.5 35.5 0 0 1  1100.5 603.5 L 1065 639 A 35.5 35.5 0 0 0 1100.5 603.5" fill="#0c586a"/><rect x="1100.5" y="603.5" width="35.5" height="35.5" fill="#0b7881"/><path d="M 1100.5 603.5 A 35.5 35.5 0 0 0 1136 639 L 1136 603.5" fill="#0c5266"/><rect x="0" y="639" width="71" height="71" fill="#0b6a77"/><path d="M 0 639 A 71 71 0 0 1  71 710 L 0 639 A 71 71 0 0 0 71 710" fill="#0c5f6f"/><rect x="71" y="639" width="71" height="71" fill="#0c485e"/><path d="M 71 639 A 71 71 0 0 1 142 710 L 71 710" fill="#0b8188"/><rect x="142" y="639" width="71" height="71" fill="#0d3450"/><rect x="142" y="639" width="35.5" height="35.5" fill="#0c5f6f"/><path d="M 142 639 A 35.5 35.5 0 0 1 177.5 674.5 L 142 674.5" fill="#0b7c84"/><rect x="177.5" y="639" width="35.5" height="35.5" fill="#0d3551"/><path d="M 177.5 639 A 35.5 35.5 0 0 0 213 674.5 L 213 639" fill="#0b6e7a"/><rect x="142" y="674.5" width="35.5" height="35.5" fill="#0c5b6c"/><path d="M 142 674.5 A 35.5 35.5 0 0 0 177.5 710 L 177.5 674.5" fill="#0d3d56"/><rect x="177.5" y="674.5" width="35.5" height="35.5" fill="#0a9495"/><path d="M 177.5 710 A 35.5 35.5 0 0 1  213 674.5 L 213 710" fill="#0c5165"/><rect x="213" y="639" width="71" height="71" fill="#0b7d84"/><path d="M 213 710 A 71 71 0 0 1  284 639 L 213 710 A 71 71 0 0 0 284 639" fill="#0c5b6c"/><rect x="284" y="639" width="71" height="71" fill="#0b6875"/><path d="M 284 710 A 71 71 0 0 0 355 639 L 284 639" fill="#0b8288"/><rect x="355" y="639" width="71" height="71" fill="#0d3450"/><rect x="355" y="639" width="35.5" height="35.5" fill="#0b8389"/><path d="M 355 639 A 35.5 35.5 0 0 1 390.5 674.5 L 355 674.5" fill="#0b7e85"/><rect x="390.5" y="639" width="35.5" height="35.5" fill="#0d3e57"/><path d="M 390.5 674.5 A 35.5 35.5 0 0 1  426 639 L 390.5 674.5 A 35.5 35.5 0 0 0 426 639" fill="#0d3853"/><rect x="355" y="674.5" width="35.5" height="35.5" fill="#0a8f91"/><path d="M 355 710 A 35.5 35.5 0 0 0 390.5 674.5 L 355 674.5" fill="#0a9092"/><rect x="390.5" y="674.5" width="35.5" height="35.5" fill="#0b6f7b"/><path d="M 390.5 674.5 A 35.5 35.5 0 0 1  426 710 L 390.5 674.5 A 35.5 35.5 0 0 0 426 710" fill="#0d445b"/><rect x="426" y="639" width="71" height="71" fill="#0a9798"/><path d="M 426 639 A 71 71 0 0 0 497 710 L 497 639" fill="#0a8a8e"/><rect x="497" y="639" width="71" height="71" fill="#0a8f92"/><path d="M 497 639 A 71 71 0 0 0 568 710 L 568 639" fill="#0d3b55"/><rect x="568" y="639" width="71" height="71" fill="#0d3450"/><rect x="568" y="639" width="35.5" height="35.5" fill="#0b767f"/><path d="M 568 674.5 A 35.5 35.5 0 0 0 603.5 639 L 568 639" fill="#0c5266"/><rect x="603.5" y="639" width="35.5" height="35.5" fill="#0b7f86"/><path d="M 603.5 674.5 A 35.5 35.5 0 0 1  639 639 L 603.5 674.5 A 35.5 35.5 0 0 0 639 639" fill="#0a8a8e"/><rect x="568" y="674.5" width="35.5" height="35.5" fill="#0a8a8e"/><path d="M 568 674.5 A 35.5 35.5 0 0 0 603.5 710 L 603.5 674.5" fill="#0c5568"/><rect x="603.5" y="674.5" width="35.5" height="35.5" fill="#0a898d"/><path d="M 603.5 710 A 35.5 35.5 0 0 0 639 674.5 L 603.5 674.5" fill="#0c5366"/><rect x="639" y="639" width="71" height="71" fill="#0d3450"/><rect x="639" y="639" width="35.5" height="35.5" fill="#0d455c"/><path d="M 639 639 A 35.5 35.5 0 0 1  674.5 674.5 L 639 639 A 35.5 35.5 0 0 0 674.5 674.5" fill="#0c5f6f"/><rect x="674.5" y="639" width="35.5" height="35.5" fill="#0b848a"/><path d="M 674.5 674.5 A 35.5 35.5 0 0 1  710 639 L 674.5 674.5 A 35.5 35.5 0 0 0 710 639" fill="#0b757f"/><rect x="639" y="674.5" width="35.5" height="35.5" fill="#0b737d"/><path d="M 639 674.5 A 35.5 35.5 0 0 1  674.5 710 L 639 674.5 A 35.5 35.5 0 0 0 674.5 710" fill="#0c5a6b"/><rect x="674.5" y="674.5" width="35.5" height="35.5" fill="#0a8e91"/><path d="M 674.5 710 A 35.5 35.5 0 0 0 710 674.5 L 674.5 674.5" fill="#0b8086"/><rect x="710" y="639" width="71" height="71" fill="#0c5467"/><path d="M 710 639 A 71 71 0 0 1 781 710 L 710 710" fill="#0d435b"/><rect x="781" y="639" width="71" height="71" fill="#0d3450"/><rect x="781" y="639" width="35.5" height="35.5" fill="#0b6b78"/><path d="M 781 639 A 35.5 35.5 0 0 1 816.5 674.5 L 781 674.5" fill="#0d3450"/><rect x="816.5" y="639" width="35.5" height="35.5" fill="#0c5d6d"/><path d="M 816.5 674.5 A 35.5 35.5 0 0 1  852 639 L 816.5 674.5 A 35.5 35.5 0 0 0 852 639" fill="#0a9092"/><rect x="781" y="674.5" width="35.5" height="35.5" fill="#0c4e63"/><path d="M 781 710 A 35.5 35.5 0 0 1  816.5 674.5 L 781 710 A 35.5 35.5 0 0 0 816.5 674.5" fill="#0d3954"/><rect x="816.5" y="674.5" width="35.5" height="35.5" fill="#0b6976"/><path d="M 816.5 710 A 35.5 35.5 0 0 0 852 674.5 L 816.5 674.5" fill="#0b747e"/><rect x="852" y="639" width="71" height="71" fill="#0d3450"/><rect x="852" y="639" width="35.5" height="35.5" fill="#0b7e85"/><path d="M 852 639 A 35.5 35.5 0 0 1  887.5 674.5 L 852 639 A 35.5 35.5 0 0 0 887.5 674.5" fill="#0c4d62"/><rect x="887.5" y="639" width="35.5" height="35.5" fill="#0c475d"/><path d="M 887.5 639 A 35.5 35.5 0 0 1  923 674.5 L 887.5 639 A 35.5 35.5 0 0 0 923 674.5" fill="#0b717c"/><rect x="852" y="674.5" width="35.5" height="35.5" fill="#0c5f6f"/><path d="M 852 710 A 35.5 35.5 0 0 0 887.5 674.5 L 852 674.5" fill="#0c5769"/><rect x="887.5" y="674.5" width="35.5" height="35.5" fill="#0a9092"/><path d="M 887.5 674.5 A 35.5 35.5 0 0 1 923 710 L 887.5 710" fill="#0b757f"/><rect x="923" y="639" width="71" height="71" fill="#0a9394"/><path d="M 923 710 A 71 71 0 0 1  994 639 L 923 710 A 71 71 0 0 0 994 639" fill="#0b6a77"/><rect x="994" y="639" width="71" height="71" fill="#0d3450"/><rect x="994" y="639" width="35.5" height="35.5" fill="#0a8f91"/><path d="M 994 639 A 35.5 35.5 0 0 1  1029.5 674.5 L 994 639 A 35.5 35.5 0 0 0 1029.5 674.5" fill="#0d3d57"/><rect x="1029.5" y="639" width="35.5" height="35.5" fill="#0d3652"/><path d="M 1029.5 674.5 A 35.5 35.5 0 0 0 1065 639 L 1029.5 639" fill="#0c4c61"/><rect x="994" y="674.5" width="35.5" height="35.5" fill="#0c5165"/><path d="M 994 710 A 35.5 35.5 0 0 0 1029.5 674.5 L 994 674.5" fill="#0c5769"/><rect x="1029.5" y="674.5" width="35.5" height="35.5" fill="#0c596b"/><path d="M 1029.5 710 A 35.5 35.5 0 0 0 1065 674.5 L 1029.5 674.5" fill="#0b858a"/><rect x="1065" y="639" width="71" height="71" fill="#0c6573"/><path d="M 1065 639 A 71 71 0 0 1 1136 710 L 1065 710" fill="#0c5a6b"/></g></svg>