<svg width="133" height="76" viewBox="0 0 133 76" fill="none" xmlns="http://www.w3.org/2000/svg">
<g clip-path="url(#clip0_404_2)">
<path d="M0.871064 72.75L12.1294 66.25M9.75023 75.1292L3.25023 63.8708L9.75023 75.1292Z" stroke="#2A2726" stroke-opacity="0.2" stroke-width="2" stroke-miterlimit="10"/>
<path d="M0.22148 39.1822L12.7785 35.8176M8.18232 43.7784L4.81767 31.2214L8.18232 43.7784Z" stroke="#2A2726" stroke-opacity="0.2" stroke-width="2" stroke-miterlimit="10"/>
<path d="M6.5 13L6.5 0M13 6.5L0 6.5L13 6.5Z" stroke="#2A2726" stroke-opacity="0.2" stroke-width="2" stroke-miterlimit="10"/>
<path d="M30.2215 71.1822L42.7785 67.8176M38.1823 75.7784L34.8177 63.2214L38.1823 75.7784Z" stroke="#2A2726" stroke-opacity="0.2" stroke-width="2" stroke-miterlimit="10"/>
<path d="M36.5 44V31M43 37.5H30H43Z" stroke="#2A2726" stroke-opacity="0.2" stroke-width="2" stroke-miterlimit="10"/>
<path d="M34.8177 12.7784L38.1823 0.221386M42.7785 8.18223L30.2215 4.81758L42.7785 8.18223Z" stroke="#2A2726" stroke-opacity="0.2" stroke-width="2" stroke-miterlimit="10"/>
<path d="M64.8177 43.7784L68.1823 31.2214M72.7785 39.1822L60.2215 35.8176L72.7785 39.1822Z" stroke="#2A2726" stroke-opacity="0.2" stroke-width="2" stroke-miterlimit="10"/>
<path d="M63.2498 12.1292L69.7498 0.87085M72.1289 9.75001L60.8706 3.25001L72.1289 9.75001Z" stroke="#2A2726" stroke-opacity="0.2" stroke-width="2" stroke-miterlimit="10"/>
<path d="M93.2498 43.1292L99.7498 31.8708M102.129 40.75L90.8706 34.25L102.129 40.75Z" stroke="#2A2726" stroke-opacity="0.2" stroke-width="2" stroke-miterlimit="10"/>
<path d="M91.9038 11.0962L101.096 1.90381M101.096 11.0962L91.9038 1.90381L101.096 11.0962Z" stroke="#2A2726" stroke-opacity="0.2" stroke-width="2" stroke-miterlimit="10"/>
<path d="M121.904 42.0962L131.096 32.9038M131.096 42.0962L121.904 32.9038L131.096 42.0962Z" stroke="#2A2726" stroke-opacity="0.2" stroke-width="2" stroke-miterlimit="10"/>
<path d="M120.871 9.75001L132.129 3.25001M129.75 12.1292L123.25 0.870849L129.75 12.1292Z" stroke="#2A2726" stroke-opacity="0.2" stroke-width="2" stroke-miterlimit="10"/>
</g>
<defs>
<clipPath id="clip0_404_2">
<rect width="133" height="76" fill="white"/>
</clipPath>
</defs>
</svg>
