<svg width="620" height="1011" viewBox="0 0 620 1011" fill="none" xmlns="http://www.w3.org/2000/svg">
<path fill-rule="evenodd" clip-rule="evenodd" d="M19.1495 -28.9369C12.557 -31.7806 4.90736 -28.7417 2.0636 -22.1492C-0.78016 -15.5567 2.2588 -7.90707 8.85131 -5.06331C139.767 51.4087 199.275 112.435 227.141 177.817C252.633 237.627 252.561 302.532 252.479 376.615C252.47 384.886 252.461 393.27 252.487 401.775C252.745 485.638 256.727 578.778 302.526 680.472C348.334 782.184 435.36 891.185 599.436 1008.57C605.275 1012.75 613.396 1011.4 617.573 1005.56C621.751 999.725 620.404 991.605 614.565 987.427C453.158 871.95 369.683 766.272 326.233 669.795C282.775 573.299 278.742 484.739 278.487 401.695C278.461 393.192 278.477 384.72 278.494 376.283C278.636 303.142 278.774 232.648 251.06 167.623C219.677 93.9913 153.699 29.1027 19.1495 -28.9369ZM18.5553 -27.5596C12.7235 -30.0752 5.95655 -27.3869 3.44092 -21.5551C0.925287 -15.7232 3.6136 -8.95626 9.44543 -6.44063C140.571 50.1218 200.452 111.371 228.521 177.229C254.141 237.339 254.065 302.565 253.98 376.589C253.97 384.871 253.961 393.263 253.987 401.771C254.244 485.586 258.23 578.462 303.894 679.856C349.566 781.266 436.387 890.076 600.309 1007.35C605.474 1011.05 612.658 1009.86 616.353 1004.69C620.049 999.526 618.857 992.343 613.692 988.647C452.131 873.06 368.451 767.19 324.865 670.411C281.272 573.615 277.242 484.79 276.987 401.7C276.961 393.194 276.977 384.725 276.993 376.296C277.132 303.105 277.266 232.934 249.68 168.211C218.5 95.0553 152.895 30.3896 18.5553 -27.5596Z" fill="#f0f7f1"/>
</svg>
