<svg width="76" height="139" viewBox="0 0 76 139" fill="none" xmlns="http://www.w3.org/2000/svg">
<path d="M71.6201 9.02997C69.4001 9.02997 67.5901 7.22997 67.5901 4.99997C67.5901 2.76997 69.3901 0.969971 71.6201 0.969971C73.8401 0.969971 75.6501 2.76997 75.6501 4.99997C75.6501 7.22997 73.8501 9.02997 71.6201 9.02997Z" fill="#FFE031"/>
<path d="M71.6201 30.6299C69.4001 30.6299 67.5901 28.8299 67.5901 26.5999C67.5901 24.3799 69.3901 22.5699 71.6201 22.5699C73.8401 22.5699 75.6501 24.3699 75.6501 26.5999C75.6501 28.8199 73.8501 30.6299 71.6201 30.6299Z" fill="#FFE031"/>
<path d="M71.6201 52.23C69.4001 52.23 67.5901 50.43 67.5901 48.2C67.5901 45.97 69.3901 44.17 71.6201 44.17C73.8401 44.17 75.6501 45.97 75.6501 48.2C75.6501 50.43 73.8501 52.23 71.6201 52.23Z" fill="#FFE031"/>
<path d="M71.6201 73.82C69.4001 73.82 67.5901 72.02 67.5901 69.79C67.5901 67.56 69.3901 65.76 71.6201 65.76C73.8401 65.76 75.6501 67.56 75.6501 69.79C75.6501 72.02 73.8501 73.82 71.6201 73.82Z" fill="#1D262D"/>
<path d="M71.6201 95.42C69.4001 95.42 67.5901 93.62 67.5901 91.39C67.5901 89.17 69.3901 87.36 71.6201 87.36C73.8401 87.36 75.6501 89.16 75.6501 91.39C75.6501 93.62 73.8501 95.42 71.6201 95.42Z" fill="#FFE031"/>
<path d="M71.6201 117.02C69.4001 117.02 67.5901 115.22 67.5901 112.99C67.5901 110.76 69.3901 108.96 71.6201 108.96C73.8401 108.96 75.6501 110.76 75.6501 112.99C75.6501 115.22 73.8501 117.02 71.6201 117.02Z" fill="#FFE031"/>
<path d="M71.6201 138.62C69.4001 138.62 67.5901 136.82 67.5901 134.59C67.5901 132.36 69.3901 130.56 71.6201 130.56C73.8401 130.56 75.6501 132.36 75.6501 134.59C75.6501 136.82 73.8501 138.62 71.6201 138.62Z" fill="#1D262D"/>
<path d="M54.9402 9.02997C57.1659 9.02997 58.9702 7.22568 58.9702 4.99997C58.9702 2.77426 57.1659 0.969971 54.9402 0.969971C52.7144 0.969971 50.9102 2.77426 50.9102 4.99997C50.9102 7.22568 52.7144 9.02997 54.9402 9.02997Z" fill="#FFE031"/>
<path d="M54.9402 30.6299C52.7202 30.6299 50.9102 28.8299 50.9102 26.5999C50.9102 24.3799 52.7102 22.5699 54.9402 22.5699C57.1602 22.5699 58.9702 24.3699 58.9702 26.5999C58.9702 28.8199 57.1602 30.6299 54.9402 30.6299Z" stroke="#FFE031" stroke-miterlimit="10"/>
<path d="M54.9402 52.23C57.1659 52.23 58.9702 50.4257 58.9702 48.2C58.9702 45.9743 57.1659 44.17 54.9402 44.17C52.7144 44.17 50.9102 45.9743 50.9102 48.2C50.9102 50.4257 52.7144 52.23 54.9402 52.23Z" fill="#FFE031"/>
<path d="M54.9402 73.83C57.1659 73.83 58.9702 72.0257 58.9702 69.8C58.9702 67.5742 57.1659 65.77 54.9402 65.77C52.7144 65.77 50.9102 67.5742 50.9102 69.8C50.9102 72.0257 52.7144 73.83 54.9402 73.83Z" fill="#FFE031"/>
<path d="M54.9402 95.42C52.7202 95.42 50.9102 93.62 50.9102 91.39C50.9102 89.17 52.7102 87.36 54.9402 87.36C57.1602 87.36 58.9702 89.16 58.9702 91.39C58.9702 93.62 57.1602 95.42 54.9402 95.42Z" fill="#FFE031"/>
<path d="M54.9402 117.03C57.1659 117.03 58.9702 115.226 58.9702 113C58.9702 110.774 57.1659 108.97 54.9402 108.97C52.7144 108.97 50.9102 110.774 50.9102 113C50.9102 115.226 52.7144 117.03 54.9402 117.03Z" stroke="#FFE031" stroke-miterlimit="10"/>
<path d="M54.9402 138.63C57.1659 138.63 58.9702 136.826 58.9702 134.6C58.9702 132.374 57.1659 130.57 54.9402 130.57C52.7144 130.57 50.9102 132.374 50.9102 134.6C50.9102 136.826 52.7144 138.63 54.9402 138.63Z" fill="#FFE031"/>
<path d="M38.2502 9.02997C40.4759 9.02997 42.2802 7.22568 42.2802 4.99997C42.2802 2.77426 40.4759 0.969971 38.2502 0.969971C36.0245 0.969971 34.2202 2.77426 34.2202 4.99997C34.2202 7.22568 36.0245 9.02997 38.2502 9.02997Z" fill="#FFE031"/>
<path d="M38.2502 30.6299C36.0302 30.6299 34.2202 28.8299 34.2202 26.5999C34.2202 24.3799 36.0202 22.5699 38.2502 22.5699C40.4802 22.5699 42.2802 24.3699 42.2802 26.5999C42.2802 28.8199 40.4802 30.6299 38.2502 30.6299Z" fill="#FFE031"/>
<path d="M38.2502 52.23C40.4759 52.23 42.2802 50.4257 42.2802 48.2C42.2802 45.9743 40.4759 44.17 38.2502 44.17C36.0245 44.17 34.2202 45.9743 34.2202 48.2C34.2202 50.4257 36.0245 52.23 38.2502 52.23Z" fill="#FFE031"/>
<path d="M38.2502 73.83C40.4759 73.83 42.2802 72.0257 42.2802 69.8C42.2802 67.5742 40.4759 65.77 38.2502 65.77C36.0245 65.77 34.2202 67.5742 34.2202 69.8C34.2202 72.0257 36.0245 73.83 38.2502 73.83Z" fill="#FFE031"/>
<path d="M38.2502 95.42C36.0302 95.42 34.2202 93.62 34.2202 91.39C34.2202 89.17 36.0202 87.36 38.2502 87.36C40.4802 87.36 42.2802 89.16 42.2802 91.39C42.2802 93.62 40.4802 95.42 38.2502 95.42Z" fill="#1D262D"/>
<path d="M38.2502 117.03C40.4759 117.03 42.2802 115.226 42.2802 113C42.2802 110.774 40.4759 108.97 38.2502 108.97C36.0245 108.97 34.2202 110.774 34.2202 113C34.2202 115.226 36.0245 117.03 38.2502 117.03Z" fill="#FFE031"/>
<path d="M38.2502 138.63C40.4759 138.63 42.2802 136.826 42.2802 134.6C42.2802 132.374 40.4759 130.57 38.2502 130.57C36.0245 130.57 34.2202 132.374 34.2202 134.6C34.2202 136.826 36.0245 138.63 38.2502 138.63Z" fill="#FFE031"/>
<path d="M21.56 9.02997C23.7857 9.02997 25.59 7.22568 25.59 4.99997C25.59 2.77426 23.7857 0.969971 21.56 0.969971C19.3343 0.969971 17.53 2.77426 17.53 4.99997C17.53 7.22568 19.3343 9.02997 21.56 9.02997Z" fill="#FFE031"/>
<path d="M21.56 30.6299C19.34 30.6299 17.53 28.8299 17.53 26.5999C17.53 24.3799 19.33 22.5699 21.56 22.5699C23.79 22.5699 25.59 24.3699 25.59 26.5999C25.59 28.8199 23.79 30.6299 21.56 30.6299Z" fill="#1D262D"/>
<path d="M21.56 52.23C23.7857 52.23 25.59 50.4257 25.59 48.2C25.59 45.9743 23.7857 44.17 21.56 44.17C19.3343 44.17 17.53 45.9743 17.53 48.2C17.53 50.4257 19.3343 52.23 21.56 52.23Z" fill="#FFE031"/>
<path d="M21.56 73.83C23.7857 73.83 25.59 72.0257 25.59 69.8C25.59 67.5742 23.7857 65.77 21.56 65.77C19.3343 65.77 17.53 67.5742 17.53 69.8C17.53 72.0257 19.3343 73.83 21.56 73.83Z" stroke="#FFE031" stroke-miterlimit="10"/>
<path d="M21.56 95.42C19.34 95.42 17.53 93.62 17.53 91.39C17.53 89.17 19.33 87.36 21.56 87.36C23.79 87.36 25.59 89.16 25.59 91.39C25.59 93.62 23.79 95.42 21.56 95.42Z" fill="#FFE031"/>
<path d="M21.56 117.03C23.7857 117.03 25.59 115.226 25.59 113C25.59 110.774 23.7857 108.97 21.56 108.97C19.3343 108.97 17.53 110.774 17.53 113C17.53 115.226 19.3343 117.03 21.56 117.03Z" fill="#FFE031"/>
<path d="M21.56 138.63C23.7857 138.63 25.59 136.826 25.59 134.6C25.59 132.374 23.7857 130.57 21.56 130.57C19.3343 130.57 17.53 132.374 17.53 134.6C17.53 136.826 19.3343 138.63 21.56 138.63Z" fill="#FFE031"/>
<path d="M4.8801 9.02997C7.1058 9.02997 8.9101 7.22568 8.9101 4.99997C8.9101 2.77426 7.1058 0.969971 4.8801 0.969971C2.65439 0.969971 0.850098 2.77426 0.850098 4.99997C0.850098 7.22568 2.65439 9.02997 4.8801 9.02997Z" stroke="#FFE031" stroke-miterlimit="10"/>
<path d="M4.8801 30.6299C2.6601 30.6299 0.850098 28.8299 0.850098 26.5999C0.850098 24.3799 2.6501 22.5699 4.8801 22.5699C7.1001 22.5699 8.9101 24.3699 8.9101 26.5999C8.9101 28.8199 7.1001 30.6299 4.8801 30.6299Z" fill="#FFE031"/>
<path d="M4.8801 52.23C7.1058 52.23 8.9101 50.4257 8.9101 48.2C8.9101 45.9743 7.1058 44.17 4.8801 44.17C2.65439 44.17 0.850098 45.9743 0.850098 48.2C0.850098 50.4257 2.65439 52.23 4.8801 52.23Z" fill="#FFE031"/>
<path d="M4.8801 73.83C7.1058 73.83 8.9101 72.0257 8.9101 69.8C8.9101 67.5742 7.1058 65.77 4.8801 65.77C2.65439 65.77 0.850098 67.5742 0.850098 69.8C0.850098 72.0257 2.65439 73.83 4.8801 73.83Z" fill="#FFE031"/>
<path d="M4.8801 95.42C2.6601 95.42 0.850098 93.62 0.850098 91.39C0.850098 89.17 2.6501 87.36 4.8801 87.36C7.1001 87.36 8.9101 89.16 8.9101 91.39C8.9101 93.62 7.1001 95.42 4.8801 95.42Z" fill="#FFE031"/>
<path d="M4.8801 117.03C7.1058 117.03 8.9101 115.226 8.9101 113C8.9101 110.774 7.1058 108.97 4.8801 108.97C2.65439 108.97 0.850098 110.774 0.850098 113C0.850098 115.226 2.65439 117.03 4.8801 117.03Z" fill="#FFE031"/>
<path d="M4.8801 138.63C7.1058 138.63 8.9101 136.826 8.9101 134.6C8.9101 132.374 7.1058 130.57 4.8801 130.57C2.65439 130.57 0.850098 132.374 0.850098 134.6C0.850098 136.826 2.65439 138.63 4.8801 138.63Z" fill="#FFE031"/>
</svg>
