<svg width="562" height="434" viewBox="0 0 562 434" fill="none" xmlns="http://www.w3.org/2000/svg">
<path d="M361.52 150.91L357.07 146.46L361.52 142.01C362.08 141.45 362.08 140.53 361.52 139.97C360.96 139.41 360.04 139.41 359.48 139.97L355.03 144.42L350.58 139.97C350.02 139.41 349.1 139.41 348.54 139.97C347.98 140.53 347.98 141.45 348.54 142.01L352.99 146.46L348.54 150.91C347.98 151.47 347.98 152.39 348.54 152.95C349.1 153.51 350.02 153.51 350.58 152.95L355.03 148.5L359.48 152.95C360.04 153.51 360.96 153.51 361.52 152.95C362.08 152.39 362.08 151.47 361.52 150.91Z" fill="#4941fa"/>
<path d="M273.93 273.34L269.48 268.89L273.93 264.44C274.49 263.88 274.49 262.96 273.93 262.4C273.37 261.84 272.45 261.84 271.89 262.4L267.44 266.85L262.99 262.4C262.43 261.84 261.51 261.84 260.95 262.4C260.39 262.96 260.39 263.88 260.95 264.44L265.4 268.89L260.95 273.34C260.39 273.9 260.39 274.82 260.95 275.38C261.51 275.94 262.43 275.94 262.99 275.38L267.44 270.93L271.89 275.38C272.45 275.94 273.37 275.94 273.93 275.38C274.49 274.82 274.49 273.91 273.93 273.34Z" fill="#4941fa"/>
<path d="M343.68 186.68C343.68 189.65 341.28 192.05 338.31 192.05C335.34 192.05 332.94 189.65 332.94 186.68C332.94 183.71 335.34 181.31 338.31 181.31C341.28 181.31 343.68 183.71 343.68 186.68Z" fill="#4941fa"/>
<path d="M407.87 162.84C407.87 165.81 405.47 168.21 402.5 168.21C399.53 168.21 397.13 165.81 397.13 162.84C397.13 159.87 399.53 157.47 402.5 157.47C405.46 157.47 407.87 159.87 407.87 162.84Z" fill="#2a2726"/>

<path d="M162.66 0.240021V15.45L177.88 0.240021H162.66Z" fill="#6B9BA5"/>
</svg>
