<svg width="133" height="76" viewBox="0 0 133 76" fill="none" xmlns="http://www.w3.org/2000/svg">
<path d="M6.5 76V63M13 69.5H0H13Z" stroke="#8BD2BD" stroke-miterlimit="10"/>
<path d="M6.5 44V31M13 37.5H0H13Z" stroke="#8BD2BD" stroke-miterlimit="10"/>
<path d="M6.5 13V0M13 6.5H0H13Z" stroke="#8BD2BD" stroke-miterlimit="10"/>
<path d="M6.5 76V63M13 69.5H0H13Z" stroke="#1D262D" stroke-width="2" stroke-miterlimit="10"/>
<path d="M6.5 44V31M13 37.5H0H13Z" stroke="#1D262D" stroke-width="2" stroke-miterlimit="10"/>
<path d="M6.5 13V0M13 6.5H0H13Z" stroke="#1D262D" stroke-width="2" stroke-miterlimit="10"/>
<path d="M36.5 76V63M43 69.5H30H43Z" stroke="#8BD2BD" stroke-miterlimit="10"/>
<path d="M36.5 44V31M43 37.5H30H43Z" stroke="#8BD2BD" stroke-miterlimit="10"/>
<path d="M36.5 13V0M43 6.5H30H43Z" stroke="#8BD2BD" stroke-miterlimit="10"/>
<path d="M36.5 76V63M43 69.5H30H43Z" stroke="#1D262D" stroke-width="2" stroke-miterlimit="10"/>
<path d="M36.5 44V31M43 37.5H30H43Z" stroke="#1D262D" stroke-width="2" stroke-miterlimit="10"/>
<path d="M36.5 13V0M43 6.5H30H43Z" stroke="#1D262D" stroke-width="2" stroke-miterlimit="10"/>
<path d="M66.5 44V31M73 37.5H60H73Z" stroke="#8BD2BD" stroke-miterlimit="10"/>
<path d="M66.5 13V0M73 6.5H60H73Z" stroke="#8BD2BD" stroke-miterlimit="10"/>
<path d="M66.5 44V31M73 37.5H60H73Z" stroke="#1D262D" stroke-width="2" stroke-miterlimit="10"/>
<path d="M66.5 13V0M73 6.5H60H73Z" stroke="#1D262D" stroke-width="2" stroke-miterlimit="10"/>
<path d="M96.5 44V31M103 37.5H90H103Z" stroke="#8BD2BD" stroke-miterlimit="10"/>
<path d="M96.5 13V0M103 6.5H90H103Z" stroke="#8BD2BD" stroke-miterlimit="10"/>
<path d="M96.5 44V31M103 37.5H90H103Z" stroke="#1D262D" stroke-width="2" stroke-miterlimit="10"/>
<path d="M96.5 13V0M103 6.5H90H103Z" stroke="#1D262D" stroke-width="2" stroke-miterlimit="10"/>
<path d="M126.5 44V31M133 37.5H120H133Z" stroke="#8BD2BD" stroke-miterlimit="10"/>
<path d="M126.5 13V0M133 6.5H120H133Z" stroke="#8BD2BD" stroke-miterlimit="10"/>
<path d="M126.5 44V31M133 37.5H120H133Z" stroke="#1D262D" stroke-width="2" stroke-miterlimit="10"/>
<path d="M126.5 13V0M133 6.5H120H133Z" stroke="#1D262D" stroke-width="2" stroke-miterlimit="10"/>
</svg>
