<svg fill="none" xmlns="http://www.w3.org/2000/svg">
<path d="M95.52 226.56V474H29.28V226.56H95.52ZM103.44 156.24C103.44 161.84 102.32 167.04 100.08 171.84C97.84 176.64 94.8 180.88 90.96 184.56C87.28 188.24 82.88 191.12 77.76 193.2C72.8 195.28 67.44 196.32 61.68 196.32C56.24 196.32 51.04 195.28 46.08 193.2C41.28 191.12 37.04 188.24 33.36 184.56C29.68 180.88 26.72 176.64 24.48 171.84C22.4 167.04 21.36 161.84 21.36 156.24C21.36 150.64 22.4 145.44 24.48 140.64C26.72 135.68 29.68 131.36 33.36 127.68C37.04 124 41.28 121.12 46.08 119.04C51.04 116.96 56.24 115.92 61.68 115.92C67.44 115.92 72.8 116.96 77.76 119.04C82.88 121.12 87.28 124 90.96 127.68C94.8 131.36 97.84 135.68 100.08 140.64C102.32 145.44 103.44 150.64 103.44 156.24ZM152.048 474V226.56H192.848C201.168 226.56 206.688 230.4 209.408 238.08L213.248 254.16C217.568 249.68 221.968 245.52 226.448 241.68C231.088 237.84 236.048 234.56 241.328 231.84C246.608 228.96 252.288 226.72 258.368 225.12C264.608 223.52 271.328 222.72 278.528 222.72C293.728 222.72 306.288 226.8 316.208 234.96C326.128 242.96 333.648 253.68 338.768 267.12C342.768 259.28 347.648 252.56 353.408 246.96C359.328 241.2 365.728 236.56 372.607 233.04C379.648 229.52 387.008 226.96 394.688 225.36C402.528 223.6 410.368 222.72 418.208 222.72C432.128 222.72 444.448 224.8 455.168 228.96C465.888 233.12 474.848 239.28 482.048 247.44C489.408 255.44 495.008 265.28 498.848 276.96C502.688 288.64 504.608 301.92 504.608 316.8V474H438.368V316.8C438.368 287.84 425.968 273.36 401.168 273.36C395.568 273.36 390.368 274.32 385.568 276.24C380.928 278 376.768 280.72 373.088 284.4C369.568 288.08 366.768 292.64 364.688 298.08C362.768 303.52 361.808 309.76 361.808 316.8V474H295.568V316.8C295.568 301.12 292.448 290 286.208 283.44C280.128 276.72 271.088 273.36 259.088 273.36C251.408 273.36 244.128 275.2 237.248 278.88C230.528 282.4 224.208 287.36 218.288 293.76V474H152.048Z" fill="#2A2726"/>
<path d="M625.208 226.56V478.8C625.208 490 623.768 500.48 620.888 510.24C618.008 520.16 613.288 528.8 606.728 536.16C600.328 543.52 591.848 549.36 581.288 553.68C570.888 558 558.008 560.16 542.648 560.16C536.888 560.16 531.528 559.76 526.567 558.96C521.447 558.16 516.247 557.04 510.967 555.6L513.367 520.56C513.687 517.36 514.887 515.12 516.967 513.84C518.887 512.56 522.807 511.92 528.727 511.92C534.647 511.92 539.528 511.36 543.368 510.24C547.208 509.28 550.248 507.52 552.488 504.96C554.888 502.4 556.568 498.96 557.528 494.64C558.488 490.48 558.968 485.2 558.968 478.8V226.56H625.208ZM633.128 156.24C633.128 161.84 632.008 167.04 629.768 171.84C627.528 176.64 624.488 180.88 620.648 184.56C616.968 188.24 612.568 191.12 607.448 193.2C602.488 195.28 597.128 196.32 591.367 196.32C585.928 196.32 580.728 195.28 575.768 193.2C570.968 191.12 566.728 188.24 563.048 184.56C559.368 180.88 556.408 176.64 554.168 171.84C552.088 167.04 551.048 161.84 551.048 156.24C551.048 150.64 552.088 145.44 554.168 140.64C556.408 135.68 559.368 131.36 563.048 127.68C566.728 124 570.968 121.12 575.768 119.04C580.728 116.96 585.928 115.92 591.367 115.92C597.128 115.92 602.488 116.96 607.448 119.04C612.568 121.12 616.968 124 620.648 127.68C624.488 131.36 627.528 135.68 629.768 140.64C632.008 145.44 633.128 150.64 633.128 156.24ZM793.335 222.72C811.895 222.72 828.775 225.68 843.975 231.6C859.175 237.52 872.215 246 883.095 257.04C893.975 267.92 902.375 281.2 908.295 296.88C914.215 312.56 917.175 330.24 917.175 349.92C917.175 369.6 914.215 387.36 908.295 403.2C902.375 418.88 893.975 432.24 883.095 443.28C872.215 454.32 859.175 462.8 843.975 468.72C828.775 474.64 811.895 477.6 793.335 477.6C774.615 477.6 757.575 474.64 742.215 468.72C727.015 462.8 713.975 454.32 703.095 443.28C692.215 432.24 683.735 418.88 677.655 403.2C671.735 387.36 668.775 369.6 668.775 349.92C668.775 330.24 671.735 312.56 677.655 296.88C683.735 281.2 692.215 267.92 703.095 257.04C713.975 246 727.015 237.52 742.215 231.6C757.575 225.68 774.615 222.72 793.335 222.72ZM793.335 427.92C812.215 427.92 826.215 421.44 835.335 408.48C844.455 395.36 849.015 375.92 849.015 350.16C849.015 324.56 844.455 305.28 835.335 292.32C826.215 279.2 812.215 272.64 793.335 272.64C773.975 272.64 759.735 279.2 750.615 292.32C741.495 305.28 736.935 324.56 736.935 350.16C736.935 375.92 741.495 395.36 750.615 408.48C759.735 421.44 773.975 427.92 793.335 427.92ZM1179.3 226.56L1045.86 540.48C1043.78 544.96 1041.22 548.32 1038.18 550.56C1035.3 552.8 1030.66 553.92 1024.26 553.92H975.06L1021.86 454.08L922.5 226.56H980.58C985.86 226.56 989.94 227.76 992.82 230.16C995.7 232.56 997.78 235.36 999.06 238.56L1046.1 356.88C1047.86 361.52 1049.38 366.24 1050.66 371.04C1052.1 375.68 1053.46 380.32 1054.74 384.96C1057.62 375.52 1060.9 366.08 1064.58 356.64L1108.26 238.56C1109.54 235.04 1111.86 232.16 1115.22 229.92C1118.58 227.68 1122.26 226.56 1126.26 226.56H1179.3Z" fill="#4941FA"/>
<circle cx="58" cy="153" r="38" fill="#4941FA"/>
<circle cx="589" cy="154" r="38" fill="#2A2726"/>
</svg>
